<svg width="30" height="30" viewBox="0 0 30 30" fill="none" xmlns="http://www.w3.org/2000/svg">
<g clip-path="url(#clip0_4_74)">
<path d="M15 0C6.725 0 0 6.725 0 15C0 23.275 6.725 30 15 30C23.275 30 30 23.275 30 15C30 6.725 23.275 0 15 0ZM25.8125 8.725C20.3625 5.8125 14.9875 4.1125 11.0125 3.15C12.2625 2.725 13.6125 2.5 15.0125 2.5C19.625 2.5 23.65 5 25.825 8.725H25.8125ZM7.55 4.9625C11.8625 5.7875 19.7 7.8 27.225 12.425C27.4 13.25 27.4875 14.1125 27.4875 15C27.4875 15.1875 27.4875 15.375 27.475 15.5625C18.75 9.7 9.0625 7.7125 5.3 7.125C5.9625 6.3125 6.7125 5.5875 7.55 4.975V4.9625ZM2.525 14.2125C2.6375 12.5 3.0875 10.8875 3.8125 9.4375C4.5875 9.5375 6.6375 9.8375 9.3875 10.5125C6.2125 11.8375 3.95 13.2125 2.5375 14.2125H2.525ZM15 27.5C8.8625 27.5 3.75 23.0625 2.7 17.225C3.425 16.625 5.5 15.0375 9.025 13.4125C8.85 13.7 8.75 14.025 8.75 14.3875C8.75 15.425 9.5875 16.2625 10.625 16.2625C11.6625 16.2625 12.5 15.425 12.5 14.3875C12.5 13.4875 11.8625 12.7375 11.025 12.55C11.775 12.25 12.575 11.95 13.425 11.6625C14.825 12.1125 16.325 12.65 17.85 13.2875C17.625 13.6 17.5 13.975 17.5 14.3875C17.5 15.425 18.3375 16.2625 19.375 16.2625C20.2625 16.2625 21.0125 15.65 21.2 14.8125C23.1625 15.8 25.15 16.95 27.0625 18.3125C25.6125 23.6125 20.75 27.5125 15 27.5125V27.5ZM15 18.75C18.8875 18.75 21.95 21.45 22.0875 21.5625L20.425 23.425C20.425 23.425 17.925 21.2375 15 21.2375C12.075 21.2375 9.6 23.4 9.575 23.425L7.9125 21.5625C8.0375 21.45 11.1125 18.75 15 18.75Z" fill="#057AFF"/>
</g>
<defs>
<clipPath id="clip0_4_74">
<rect width="30" height="30" fill="white"/>
</clipPath>
</defs>
</svg>
