<svg id="Layer_2" data-name="Layer 2" xmlns="http://www.w3.org/2000/svg" xmlns:xlink="http://www.w3.org/1999/xlink" viewBox="0 0 1002.59 580.65"><defs><style>.cls-1{fill:#9de4ff;}.cls-2{fill:#1c1d1b;}.cls-3{fill:#403e3f;}.cls-4{fill:url(#linear-gradient);}.cls-5{fill:#515151;}.cls-6{fill:url(#linear-gradient-2);}.cls-7{fill:url(#linear-gradient-3);}.cls-8{fill:url(#linear-gradient-4);}.cls-9{fill:#a0a0a0;}.cls-10{fill:none;stroke:#545454;stroke-miterlimit:10;stroke-width:2px;}.cls-11{fill:url(#linear-gradient-5);}.cls-12{fill:url(#linear-gradient-6);}.cls-13{fill:#b7b7b7;}.cls-14{fill:url(#linear-gradient-7);}.cls-15{fill:url(#linear-gradient-8);}.cls-16{fill:#0068b5;}</style><linearGradient id="linear-gradient" x1="922.24" y1="246.64" x2="1081.93" y2="246.64" gradientUnits="userSpaceOnUse"><stop offset="0" stop-color="#36c9ff"/><stop offset="0.34" stop-color="#36beff"/><stop offset="0.93" stop-color="#36a2ff"/><stop offset="0.99" stop-color="#369eff"/></linearGradient><linearGradient id="linear-gradient-2" x1="919.09" y1="279.88" x2="1117.28" y2="279.88" xlink:href="#linear-gradient"/><linearGradient id="linear-gradient-3" x1="1015.1" y1="364.56" x2="1123.12" y2="364.56" xlink:href="#linear-gradient"/><linearGradient id="linear-gradient-4" x1="775.2" y1="400.14" x2="1078.29" y2="400.14" xlink:href="#linear-gradient"/><linearGradient id="linear-gradient-5" x1="926.93" y1="513.54" x2="1051.99" y2="513.54" xlink:href="#linear-gradient"/><linearGradient id="linear-gradient-6" x1="1020.68" y1="516.45" x2="1168.68" y2="516.45" xlink:href="#linear-gradient"/><linearGradient id="linear-gradient-7" x1="646.02" y1="329.05" x2="910.01" y2="329.05" xlink:href="#linear-gradient"/><linearGradient id="linear-gradient-8" x1="172.21" y1="172.94" x2="290.44" y2="172.94" xlink:href="#linear-gradient"/></defs><path class="cls-1" d="M1082.25,288.32l-.15-.06-.17-.08c-4.35-1.72-51.28-20.43-57.65-25.19-6.67-5-34.82-26.49-46.7-31.8-10.22-4.56-45.53-21.42-55.34-26.1l-2.54-1.21,46.61-29.82S1080.58,282.9,1082.25,288.32Z" transform="translate(-228.6 -174.06)"/><polygon class="cls-2" points="805.03 147.73 737.72 145.13 753.04 196.63 799.02 164.62 805.03 147.73"/><polygon class="cls-3" points="786.51 101.6 786.4 102.6 784.01 124.69 796.73 145.34 747.93 172.03 768.99 182.03 809.86 196.63 858.24 194.34 862.13 170.12 832.17 138.66 786.51 101.6"/><path class="cls-4" d="M1081.93,288.18l-63.75-23L961,226.08l-31.67-9.58-7.08-11.41c9.81,4.68,45.12,21.54,55.34,26.1,11.88,5.31,40,26.79,46.7,31.8C1030.65,267.75,1077.58,286.46,1081.93,288.18Z" transform="translate(-228.6 -174.06)"/><polygon class="cls-2" points="753.04 176.82 749.91 93 721.45 113.64 702.48 154.3 706.75 173.38 753.04 176.82"/><path class="cls-2" d="M829.94,400.14l-27.11-14.65s-146,95.92-146.8,97.17S629.34,526,629.34,526l48,118.44s236.46,8.34,246.89,0-58-88.41-58-88.41l-24.6-70.9,37.53-13.24L860.8,435.54Z" transform="translate(-228.6 -174.06)"/><path class="cls-5" d="M651.65,522.91s-192-85.5-207.68-90.29c0,0,69.43,104.67,71.31,117.19s65.06,59.42,65.06,59.42l62.56,6.88,43.16,10.64V615.49Z" transform="translate(-228.6 -174.06)"/><polygon class="cls-3" points="247.07 138.97 314 159.62 414.09 190.27 546.08 157.32 599.88 164.62 631.79 204.66 526.07 272.24 422.22 314.44 287.1 226.71 247.07 138.97"/><path class="cls-6" d="M1105.8,340.45l7.3,14.38-69-30.85c-10.22-26.48-15-27.74-33.78-48.17-21.52-23.44-84.87-44.62-84.87-44.62l-6.35-26.26,3.15.16,7.08,11.41L961,226.08l57.19,39.1,63.75,23,.17.08.15.06,35,56.51Z" transform="translate(-228.6 -174.06)"/><path class="cls-7" d="M1123.12,375.27l-10.81-22-46.63-19.63-2.82,8.7,12.92,15.84-31.48-18.35-29.2,13.35,3.08,19.39s71.58,22.94,72.41,22.94,11.47-8.34,11.47-8.34Z" transform="translate(-228.6 -174.06)"/><path class="cls-8" d="M945.67,349.31l-10.32-20.95H880.3l-48.48,32.53,19.39,13.76s-66.62,51-76,55.36l85.23,41.91L962.56,427.2,1047,415.31l31.28-6.57L959.74,370.27Z" transform="translate(-228.6 -174.06)"/><path class="cls-1" d="M853.08,361.72,884,335.45l15.84,6.88,84.45,1.46,119.9,46.5,8.14,8.75s-91.85,49.84-94.1,53.18-136.11,37.74-94,192.25c0,0-111.35-55.05-176.41-138.45,0,0,169.74-75.07,198.51-107.6l105.93,7.92L919.71,367.56Z" transform="translate(-228.6 -174.06)"/><path class="cls-2" d="M1081.78,455.91A149.4,149.4,0,1,0,1231.19,605.3,149.39,149.39,0,0,0,1081.78,455.91Zm-.57,270.83A121.44,121.44,0,1,1,1202.65,605.3,121.44,121.44,0,0,1,1081.21,726.74Z" transform="translate(-228.6 -174.06)"/><path class="cls-1" d="M1081.21,483.86a121.45,121.45,0,1,0,121.44,121.45A121.44,121.44,0,0,0,1081.21,483.86ZM987.71,605.3a93.5,93.5,0,1,1,93.5,93.5A93.5,93.5,0,0,1,987.71,605.3Z" transform="translate(-228.6 -174.06)"/><path class="cls-3" d="M1082.25,499.75A105.55,105.55,0,0,0,976.71,606.88c.83,56.84,47.24,103.21,104.09,104a105.55,105.55,0,1,0,1.45-211.1ZM1158.08,650,1134,647.34l-4,5.4,19.23,5.55a5.21,5.21,0,0,1,2.47,8.44,94.08,94.08,0,0,1-18,15.94,7.2,7.2,0,0,1-9-.73l-18.09-17.12-6.47,1.87L1112,682.6a7.9,7.9,0,0,1-4,12.3,93.33,93.33,0,0,1-26.8,3.9,92,92,0,0,1-9.59-.49,6.82,6.82,0,0,1-6-8.4l4.33-17.47-4.82-4.7-9,20.51a7.41,7.41,0,0,1-9.5,4,93.66,93.66,0,0,1-20.08-11,8.69,8.69,0,0,1-1.79-12.3l10.45-13.73-2.56-6.23-17.07,15.85a4.75,4.75,0,0,1-6.89-.43,93.08,93.08,0,0,1-15.22-26.65,5,5,0,0,1,2.69-6.26l20.57-9,.78-6.68-22.78,5.63a5.13,5.13,0,0,1-6.3-4.36,93.36,93.36,0,0,1-.72-12.24c.32-52.9,45.22-95.35,98-92.82a94.64,94.64,0,0,1,9.59,1L1093.43,539l5.55,3.82,6.94-27.76a93.43,93.43,0,0,1,38.56,21.36,12,12,0,0,1,2.37,14.67l-8.74,15.6,3.41,5.81,10.27-12.64a7.11,7.11,0,0,1,11.78,1.11,92.56,92.56,0,0,1,8.58,22.48,8.49,8.49,0,0,1-5.75,10.11l-16.85,5.15L1148,605.3l23.43-2.94a2.92,2.92,0,0,1,3.29,2.91v0a93.16,93.16,0,0,1-9.29,40.68A7.27,7.27,0,0,1,1158.08,650Z" transform="translate(-228.6 -174.06)"/><circle class="cls-9" cx="853.19" cy="431.25" r="70.6"/><path class="cls-3" d="M1011.35,532.77v13.48a7.8,7.8,0,0,1-.45,2.62L992,601.77a7.77,7.77,0,0,0,5,10l22.14,7a7.76,7.76,0,0,0,9.87-5.54l10.49-42.52c0-.22.1-.44.13-.67l1.37-8.82a7.74,7.74,0,0,0-.78-4.77L1026,529.19C1022.25,522,1011.35,524.65,1011.35,532.77Z" transform="translate(-228.6 -174.06)"/><circle class="cls-10" cx="853.19" cy="431.25" r="33.24"/><path class="cls-2" d="M386.35,426.62A157.76,157.76,0,1,0,544.11,584.37,157.74,157.74,0,0,0,386.35,426.62Zm-.61,286A128.24,128.24,0,1,1,514,584.37,128.23,128.23,0,0,1,385.74,712.6Z" transform="translate(-228.6 -174.06)"/><path class="cls-1" d="M385.74,456.13A128.25,128.25,0,1,0,514,584.38,128.23,128.23,0,0,0,385.74,456.13ZM287,584.37a98.74,98.74,0,1,1,98.73,98.73A98.73,98.73,0,0,1,287,584.37Z" transform="translate(-228.6 -174.06)"/><path class="cls-3" d="M498.18,579.34a111.45,111.45,0,0,0-118-106.22c-59.92,3.59-106.62,54.76-104.71,114.76a111.45,111.45,0,1,0,222.74-8.54ZM343.33,666.5,345,641l-5.89-4-4.94,20.54a5.51,5.51,0,0,1-8.78,3,99.54,99.54,0,0,1-17.67-18.2,7.59,7.59,0,0,1,.34-9.52l17.2-19.9-2.29-6.73-16.21,13.27a8.35,8.35,0,0,1-13.17-3.67,98.91,98.91,0,0,1-5.4-28.08,100.93,100.93,0,0,1,.06-10.15,7.2,7.2,0,0,1,8.59-6.69l18.63,3.73,4.72-5.3-22.06-8.55a7.83,7.83,0,0,1-4.62-9.83,98.46,98.46,0,0,1,10.68-21.71,9.18,9.18,0,0,1,12.89-2.48l15,10.37,6.45-3L321,516.89a5,5,0,0,1,.13-7.3,98.64,98.64,0,0,1,27.38-17.32,5.27,5.27,0,0,1,6.74,2.54l10.51,21.27,7.09.5-7-23.76a5.4,5.4,0,0,1,4.29-6.85A99.25,99.25,0,0,1,383,484.62c55.81-2.17,102.73,43.16,102.57,99a97.45,97.45,0,0,1-.55,10.16L457.27,593l-3.77,6,29.62,6a98.61,98.61,0,0,1-20.69,41.69,12.64,12.64,0,0,1-15.36,3.2l-16.87-8.47-6,3.86,13.82,10.24a7.51,7.51,0,0,1-.61,12.48,97.6,97.6,0,0,1-23.31,10.12,9,9,0,0,1-10.93-5.59L397,655.05l-7-1.33,4.22,24.58a3.09,3.09,0,0,1-2.91,3.61h0a98.29,98.29,0,0,1-43.35-7.86A7.68,7.68,0,0,1,343.33,666.5Z" transform="translate(-228.6 -174.06)"/><circle class="cls-9" cx="157.75" cy="410.32" r="74.55"/><path class="cls-3" d="M449.18,542.88v14.23a8.35,8.35,0,0,0,.48,2.76l20,55.87a8.19,8.19,0,0,1-5.25,10.57L441,633.68a8.19,8.19,0,0,1-10.42-5.86l-11.07-44.89c-.06-.24-.11-.47-.15-.71l-1.44-9.31a8.15,8.15,0,0,1,.83-5l15-28.77C437.68,531.49,449.18,534.3,449.18,542.88Z" transform="translate(-228.6 -174.06)"/><circle class="cls-10" cx="157.75" cy="410.32" r="35.1"/><polygon class="cls-2" points="231.66 347.74 150.23 396.81 150.23 441 257.08 378.56 231.66 347.74"/><polygon class="cls-2" points="266.04 149.3 245.61 103 116.74 73.39 135.92 95.5 201.82 139.71 266.04 149.3"/><path class="cls-11" d="M1000.28,460.16s-62.45,46.71-73.35,106.76c0,0,37.48-55.25,58.33-53.9l66.73,53.9Z" transform="translate(-228.6 -174.06)"/><path class="cls-12" d="M1020.68,450.36s95.77-23.79,148,16.25c0,0-22.63,8.42-41.6,12.19-20,.11-28.46,1.1-39.1,11.16-2.19,13.87,13.07,66.13,3.38,99.6Z" transform="translate(-228.6 -174.06)"/><path class="cls-3" d="M1020.68,450.36l79.5,156.58s-7.09,15.43-21.89,13.76l-78-160.54Z" transform="translate(-228.6 -174.06)"/><path class="cls-3" d="M678.24,623.62,575,586.09l-9.38-20.33L417.38,492.57l-30,51.61L547.81,625.5s48.79,19.39,57.86,21,98.84-2,98.84-2l-15.64-22.1Z" transform="translate(-228.6 -174.06)"/><polygon class="cls-13" points="188.78 318.51 172 311.53 153.86 311.53 135.09 347.39 141.76 361.78 158.76 370.12 188.78 318.51"/><path class="cls-14" d="M910,333.36,880.4,291.24s-91-23.85-105.2-27.11c-13.55-.52-67-27.52-129.18,74.24l27.53,59.22,64.64-31.28L787.82,353l50.77,12.74Z" transform="translate(-228.6 -174.06)"/><path class="cls-2" d="M646,335.86s-53,3.33-60,2.5-84.24-23.77-87.58-23.77-3.75,6.25-3.75,6.25l88,43,9.18,13.34,81.74,17.94Z" transform="translate(-228.6 -174.06)"/><polygon class="cls-15" points="172.21 115.1 250.4 143.04 290.44 230.78 209.74 178.07 172.21 115.1"/><polygon class="cls-3" points="86.19 82.67 131.23 86.43 172.21 115.1 209.74 178.07 119.97 125.84 86.19 82.67"/><polygon class="cls-2" points="138.43 130.37 8 178.07 17.07 195.9 28.33 184.01 18.32 255.96 60.86 176.51 142.18 149.3 172.21 150.86 138.43 130.37"/><polygon class="cls-2" points="730.21 89.56 711.89 103.32 721.45 113.64 749.91 93 730.21 89.56"/><path class="cls-3" d="M931.07,328.36s28.36-17.31,21.27-36.91a46.67,46.67,0,0,0-11.85-14.08c-8.81-6.71-22.17-10.16-38.82,6.15,0,0-11.26,16.89,8.34,44.84Z" transform="translate(-228.6 -174.06)"/><path class="cls-2" d="M910,294.89l-28.93,29.45,10.81,11.11L930,303S924.24,287.07,910,294.89Z" transform="translate(-228.6 -174.06)"/><path class="cls-3" d="M893.43,330.23c0,4.67-3.22,8.45-7.19,8.45s-7.2-3.78-7.2-8.45a9.26,9.26,0,0,1,2-5.89,6.74,6.74,0,0,1,5.16-2.55C890.21,321.79,893.43,325.57,893.43,330.23Z" transform="translate(-228.6 -174.06)"/><path class="cls-16" d="M879,300.07l-26.4,14.35-.14.08-.16-.05c-13.87-4.22-27.68-8.62-41.51-13-6.91-2.19-13.83-4.35-20.72-6.61l-10.33-3.4-5.16-1.75c-.86-.3-1.72-.61-2.59-.94l-.68-.29a2.67,2.67,0,0,0-.41-.1,9.58,9.58,0,0,0-1.24-.1,82.52,82.52,0,0,0-10.69.77c-3.58.44-7.15,1-10.71,1.61-7.11,1.23-14.18,2.76-21.18,4.52s-14,3.76-20.76,6.14a150.56,150.56,0,0,0-19.88,8.42l-.38-1.69c3.51.21,6.95.61,10.4,1.08s6.87,1.05,10.28,1.76a188.61,188.61,0,0,1,20.14,5.27,148.52,148.52,0,0,1,19.34,7.68,126.79,126.79,0,0,1,17.94,10.45A136.71,136.71,0,0,0,746,324.52a171.06,171.06,0,0,0-19.4-7.18,187.67,187.67,0,0,0-20.09-4.85A171,171,0,0,0,686,309.86l-3.24-.19,2.86-1.5a154,154,0,0,1,20.09-8.62c6.87-2.42,13.85-4.49,20.9-6.28S740.81,290,748,288.8q5.38-.92,10.8-1.57a83,83,0,0,1,11-.74,12.91,12.91,0,0,1,1.47.13,3.43,3.43,0,0,1,.9.26l.56.24c.82.32,1.67.62,2.52.92l5.13,1.77,10.3,3.45,20.64,6.85,41.29,13.62-.29,0Z" transform="translate(-228.6 -174.06)"/></svg>