<svg id="Layer_2" data-name="Layer 2" xmlns="http://www.w3.org/2000/svg" xmlns:xlink="http://www.w3.org/1999/xlink" viewBox="0 0 1002.59 695.15"><defs><style>.cls-1{fill:#ff7f40;}.cls-2{fill:#9de4ff;}.cls-3{fill:#1c1d1b;}.cls-4{fill:#403e3f;}.cls-5{fill:url(#linear-gradient);}.cls-6{fill:#515151;}.cls-7{fill:url(#linear-gradient-2);}.cls-8{fill:url(#linear-gradient-3);}.cls-9{fill:url(#linear-gradient-4);}.cls-10{fill:#a0a0a0;}.cls-11{fill:none;stroke:#545454;stroke-miterlimit:10;stroke-width:2px;}.cls-12{fill:url(#linear-gradient-5);}.cls-13{fill:url(#linear-gradient-6);}.cls-14{fill:#b7b7b7;}.cls-15{fill:url(#linear-gradient-7);}.cls-16{fill:url(#linear-gradient-8);}.cls-17{fill:#0068b5;}</style><linearGradient id="linear-gradient" x1="950.82" y1="428.82" x2="1110.5" y2="428.82" gradientTransform="matrix(1, 0, 0, -1, -160.87, 659.26)" gradientUnits="userSpaceOnUse"><stop offset="0" stop-color="#36c9ff"/><stop offset="0.34" stop-color="#36beff"/><stop offset="0.93" stop-color="#36a2ff"/><stop offset="0.99" stop-color="#369eff"/></linearGradient><linearGradient id="linear-gradient-2" x1="947.65" y1="395.57" x2="1145.81" y2="395.57" xlink:href="#linear-gradient"/><linearGradient id="linear-gradient-3" x1="1043.68" y1="310.86" x2="1151.69" y2="310.86" xlink:href="#linear-gradient"/><linearGradient id="linear-gradient-4" x1="803.83" y1="275.34" x2="1106.85" y2="275.34" xlink:href="#linear-gradient"/><linearGradient id="linear-gradient-5" x1="955.51" y1="161.91" x2="1080.57" y2="161.91" xlink:href="#linear-gradient"/><linearGradient id="linear-gradient-6" x1="1049.25" y1="159" x2="1197.25" y2="159" xlink:href="#linear-gradient"/><linearGradient id="linear-gradient-7" x1="674.62" y1="346.41" x2="938.59" y2="346.41" xlink:href="#linear-gradient"/><linearGradient id="linear-gradient-8" x1="268.51" y1="409.21" x2="386.74" y2="409.21" gradientTransform="matrix(1, 0, 0, -1, -96.3, 696.62)" xlink:href="#linear-gradient"/></defs><path class="cls-1" d="M524.81,43.38c.85,4.07,1.59,7.78,2.43,11.47.9,4,1.5,8.12,3,11.91,4.32,11.18,12.63,17.85,24.35,20.3l16.3,3.41c.33.07.65.17,1.33.34-4.46,1-8.59,1.8-12.7,2.68-4.29.93-8.68,1.53-12.69,3.47-10,4.81-16,12.65-18.25,23.46-1.21,5.8-2.43,11.61-3.86,17.43-.6-2.82-1.18-5.64-1.79-8.45-.84-3.93-1.44-7.92-2.59-11.76-3.65-12.26-11.81-19.93-24.27-22.87-6.06-1.43-12.19-2.59-18.31-4.08,2.82-.59,5.65-1.15,8.46-1.79,4.74-1.08,9.64-1.76,14.18-3.41,11.07-4,17.85-12.1,20.47-23.58,1.31-5.71,2.42-11.45,3.63-17.18A9.42,9.42,0,0,1,524.81,43.38Z" transform="translate(-96.3 -43.38)"/><path class="cls-1" d="M599.52,172.08c3.89-.83,7.77-1.68,11.66-2.47q16.65-3.36,20.08-20c.81-3.89,1.63-7.78,2.8-11.71.29,1.3.6,2.59.87,3.88.65,3.08,1.18,6.18,1.94,9.23,2.44,9.74,8.54,15.9,18.34,18.24,4.33,1,8.71,1.87,13.08,3.12-4.08.87-8.15,1.71-12.22,2.59-10.52,2.28-17,8.67-19.35,19.18-.92,4.11-1.75,8.24-3,12.41-.43-2-.85-3.92-1.28-5.88a73,73,0,0,0-2-8.84c-2.85-9.15-9.07-14.75-18.44-16.81-4.19-.92-8.39-1.76-12.58-2.64Z" transform="translate(-96.3 -43.38)"/><path class="cls-1" d="M327,197.51l-8.67,1.84c-7.8,1.69-12.45,6.5-14.14,14.24-.64,2.88-1.22,5.78-2.15,8.68-.61-2.88-1.23-5.76-1.84-8.64-1.68-7.84-6.41-12.64-14.28-14.31a89.21,89.21,0,0,1-8.67-2.15c2.56-.55,5.11-1.18,7.68-1.65,8.68-1.56,13.8-6.66,15.46-15.3a78.23,78.23,0,0,1,1.92-8c.62,2.87,1.24,5.73,1.83,8.59q2.46,11.9,14.32,14.51c2.86.63,5.73,1.21,8.6,1.81Z" transform="translate(-96.3 -43.38)"/><path class="cls-1" d="M762.92,222.54c-2.9.61-5.79,1.22-8.68,1.85-7.79,1.68-12.44,6.5-14.14,14.23-.63,2.89-1.21,5.78-2.14,8.69-.62-2.88-1.23-5.77-1.85-8.65-1.68-7.84-6.41-12.64-14.27-14.31a89.21,89.21,0,0,1-8.67-2.15c2.56-.55,5.1-1.18,7.68-1.65,8.68-1.56,13.8-6.65,15.45-15.3a75.73,75.73,0,0,1,1.93-8c.61,2.86,1.24,5.72,1.83,8.58q2.46,11.91,14.31,14.51c2.87.63,5.74,1.21,8.61,1.82Z" transform="translate(-96.3 -43.38)"/><path class="cls-1" d="M438.64,140.65c-3,.64-6,1.24-9,1.92-7.45,1.68-12.1,6.22-13.84,13.67-.71,3-1.31,6.11-2.3,9.18-.63-2.95-1.23-5.91-1.89-8.85q-2.57-11.52-14.12-14c-2.92-.63-5.84-1.25-8.78-2.18,2.69-.58,5.38-1.19,8.08-1.72,8.26-1.6,13.26-6.48,14.95-14.74a73.88,73.88,0,0,1,2.08-8.29c.56,2.57,1.17,5.12,1.65,7.7,1.6,8.67,6.69,13.79,15.37,15.39,2.6.48,5.18,1.09,7.77,1.65Z" transform="translate(-96.3 -43.38)"/><path class="cls-2" d="M950,272.12l-.14-.06-.18-.07c-4.35-1.72-51.28-20.43-57.64-25.19-6.67-5-34.83-26.49-46.71-31.81-10.22-4.55-45.53-21.41-55.33-26.1l-2.54-1.21L834,157.86S948.29,266.71,950,272.12Z" transform="translate(-96.3 -43.38)"/><polygon class="cls-3" points="805.03 262.2 737.71 259.6 753.04 311.11 799.02 279.1 805.03 262.2"/><polygon class="cls-4" points="786.51 216.06 786.4 217.07 784.01 239.16 796.72 259.81 747.93 286.5 768.99 296.5 809.86 311.11 858.24 308.81 862.13 284.58 832.17 253.13 786.51 216.06"/><path class="cls-5" d="M949.63,272l-63.74-23L828.7,209.88,797,200.31,790,188.89c9.8,4.69,45.11,21.55,55.33,26.1,11.88,5.32,40,26.8,46.71,31.81C898.35,251.56,945.28,270.26,949.63,272Z" transform="translate(-96.3 -43.38)"/><polygon class="cls-3" points="753.04 291.3 749.91 207.47 721.45 228.12 702.47 268.77 706.75 287.86 753.04 291.3"/><path class="cls-3" d="M697.64,384l-27.1-14.69s-146,95.92-146.8,97.17-26.69,43.37-26.69,43.37l48,118.44s236.46,8.34,246.89,0-58-88.41-58-88.41l-24.61-70.9,37.54-13.24L728.52,419.3Z" transform="translate(-96.3 -43.38)"/><path class="cls-6" d="M519.36,506.71s-192-85.49-207.69-90.29c0,0,69.44,104.68,71.32,117.19S448.05,593,448.05,593l62.55,6.88,43.17,10.64v-11.3Z" transform="translate(-96.3 -43.38)"/><polygon class="cls-4" points="247.07 253.44 314 274.08 414.09 304.75 546.08 271.8 599.88 279.1 631.79 319.13 526.07 386.71 422.22 428.92 287.1 341.18 247.07 253.44"/><path class="cls-7" d="M973.51,324.26l7.3,14.38-69-30.86c-10.22-26.48-15-27.73-33.78-48.17-21.54-23.44-84.9-44.62-84.9-44.62l-6.35-26.26,3.16.16L797,200.31l31.67,9.57L885.88,249l63.74,23,.18.07.14.06,35,56.52Z" transform="translate(-96.3 -43.38)"/><path class="cls-8" d="M990.82,359.08l-10.81-22-46.63-19.62-2.82,8.69L943.49,342,912,323.65,882.81,337l3.08,19.39s71.57,22.94,72.41,22.94S969.76,371,969.76,371Z" transform="translate(-96.3 -43.38)"/><path class="cls-9" d="M813.37,333.12l-10.32-21h-55l-48.48,32.53L719,358.41s-66.62,51-76,55.37l85.17,42L830.25,411l84.45-11.88L946,392.55,827.45,354.08Z" transform="translate(-96.3 -43.38)"/><path class="cls-2" d="M720.79,345.53l30.86-26.27,15.85,6.88L852,327.6l119.9,46.5,8.13,8.76S888.13,432.7,885.89,436s-136.12,37.75-94,192.26c0,0-111.35-55-176.41-138.46,0,0,169.73-75.07,198.51-107.59l105.93,7.92-132.51-38.8Z" transform="translate(-96.3 -43.38)"/><path class="cls-3" d="M949.49,439.71a149.41,149.41,0,1,0,149.4,149.42v0a149.38,149.38,0,0,0-149.38-149.4Zm-.57,270.84a121.45,121.45,0,1,1,121.44-121.46v0A121.45,121.45,0,0,1,948.92,710.55Z" transform="translate(-96.3 -43.38)"/><path class="cls-2" d="M948.92,467.66a121.45,121.45,0,1,0,121.44,121.46h0A121.46,121.46,0,0,0,948.92,467.66ZM855.41,589.11a93.51,93.51,0,1,1,93.52,93.5h0a93.5,93.5,0,0,1-93.51-93.49Z" transform="translate(-96.3 -43.38)"/><path class="cls-4" d="M950,483.56A105.54,105.54,0,0,0,844.41,589.1c0,.53,0,1.06,0,1.59.83,56.84,47.24,103.21,104.09,104A105.55,105.55,0,0,0,950,483.59h0Zm75.84,150.22-24.07-2.63-4,5.4,19.22,5.55a5.21,5.21,0,0,1,2.48,8.43,93.87,93.87,0,0,1-18,15.94,7.19,7.19,0,0,1-9-.72l-18.1-17.13-6.46,1.88,11.86,15.9a7.93,7.93,0,0,1-4,12.31,93.19,93.19,0,0,1-26.8,3.9c-3.21,0-6.41-.17-9.6-.49a6.81,6.81,0,0,1-6.17-7.4,6.74,6.74,0,0,1,.17-1l4.33-17.47-4.82-4.7-9,20.51a7.43,7.43,0,0,1-9.5,4,93.32,93.32,0,0,1-20.08-11,8.7,8.7,0,0,1-1.92-12.14l.12-.16L902.91,639l-2.56-6.22-17.07,15.85a4.74,4.74,0,0,1-6.71-.23l-.19-.21a93.44,93.44,0,0,1-15.25-26.72,5,5,0,0,1,2.7-6.27l20.56-9,.78-6.69-22.77,5.63a5.11,5.11,0,0,1-6.19-3.73c-.05-.21-.08-.41-.11-.62a94.66,94.66,0,0,1-.73-12.25c.33-52.89,45.22-95.35,98.06-92.81q4.86.24,9.59.95l-1.89,26.15,5.54,3.82,6.94-27.76a93.25,93.25,0,0,1,38.58,21.35,12,12,0,0,1,2.37,14.66l-8.74,15.6,3.4,5.81,10.28-12.63a7.11,7.11,0,0,1,11.78,1.11,92.92,92.92,0,0,1,8.58,22.48,8.48,8.48,0,0,1-5.75,10.1l-16.86,5.16-1.55,6.55,23.42-2.94a2.94,2.94,0,0,1,3.28,2.54c0,.12,0,.24,0,.36h0a93,93,0,0,1-9.3,40.68,7.23,7.23,0,0,1-7.33,4Z" transform="translate(-96.3 -43.38)"/><circle class="cls-10" cx="853.19" cy="545.73" r="70.6"/><path class="cls-4" d="M879.06,516.58v13.48a7.76,7.76,0,0,1-.46,2.61l-18.91,52.91a7.77,7.77,0,0,0,4.72,9.91l.28.09,22.14,7a7.77,7.77,0,0,0,9.74-5.06c0-.16.09-.32.13-.48l10.43-42.53c.06-.22.1-.45.14-.67l1.37-8.82a7.73,7.73,0,0,0-.79-4.77L893.68,513C890,505.79,879.06,508.46,879.06,516.58Z" transform="translate(-96.3 -43.38)"/><circle class="cls-11" cx="853.19" cy="545.73" r="33.24"/><path class="cls-3" d="M254.05,410.42A157.76,157.76,0,1,0,411.82,568.17h0A157.74,157.74,0,0,0,254.09,410.42Zm-.6,286A128.24,128.24,0,1,1,381.68,568.17,128.24,128.24,0,0,1,253.45,696.42Z" transform="translate(-96.3 -43.38)"/><path class="cls-2" d="M253.45,439.94A128.24,128.24,0,1,0,381.68,568.19h0A128.23,128.23,0,0,0,253.47,439.94ZM154.72,568.17a98.73,98.73,0,1,1,98.73,98.74,98.73,98.73,0,0,1-98.73-98.74Z" transform="translate(-96.3 -43.38)"/><path class="cls-4" d="M365.89,563.15A111.46,111.46,0,0,0,249.52,456.84l-1.63.09c-60,3.59-106.65,54.75-104.76,114.75A111.46,111.46,0,0,0,366,564.88c0-.58,0-1.15-.07-1.73ZM211,650.26l1.63-25.51-5.89-4-4.94,20.55a5.5,5.5,0,0,1-8.77,3,98.56,98.56,0,0,1-17.67-18.2,7.59,7.59,0,0,1,.33-9.51l17.2-19.91L190.65,590l-16.21,13.31a8.35,8.35,0,0,1-13.18-3.67,98.58,98.58,0,0,1-5.39-28.09,100.87,100.87,0,0,1,.06-10.14,7.21,7.21,0,0,1,7.56-6.82,6.77,6.77,0,0,1,1,.13l18.62,3.77,4.73-5.31-22.06-8.54a7.85,7.85,0,0,1-4.62-9.84,98.13,98.13,0,0,1,10.68-21.7,9.17,9.17,0,0,1,12.69-2.61l.19.13,15,10.37,6.45-3-17.53-17.25a5,5,0,0,1-.11-7.07l.23-.22a98.69,98.69,0,0,1,27.35-17.33,5.27,5.27,0,0,1,6.74,2.55l10.52,21.26,7.09.51-7-23.76a5.42,5.42,0,0,1,3.67-6.72,6.21,6.21,0,0,1,.62-.14,97.63,97.63,0,0,1,12.88-1.34c55.81-2.18,102.74,43.15,102.58,99a101.55,101.55,0,0,1-.55,10.16L325,576.81l-3.77,6,29.62,6a98.59,98.59,0,0,1-20.7,41.7,12.65,12.65,0,0,1-15.35,3.2l-16.87-8.45-6,3.87,13.82,10.23a7.52,7.52,0,0,1,1.59,10.52,7.64,7.64,0,0,1-2.18,2A98.11,98.11,0,0,1,281.82,662a9,9,0,0,1-10.93-5.59l-6.24-17.53-7-1.33,4.21,24.57a3.1,3.1,0,0,1-2.53,3.58l-.38,0h0a98.2,98.2,0,0,1-43.36-7.87A7.66,7.66,0,0,1,211,650.26Z" transform="translate(-96.3 -43.38)"/><circle class="cls-10" cx="157.75" cy="524.79" r="74.55"/><path class="cls-4" d="M316.89,526.69v14.23a8.14,8.14,0,0,0,.48,2.76l20,55.86a8.19,8.19,0,0,1-5,10.48l-.28.1-23.37,7.37a8.2,8.2,0,0,1-10.28-5.36c-.05-.17-.1-.33-.14-.5l-11.08-44.9c-.06-.23-.1-.46-.14-.7l-1.45-9.31a8.32,8.32,0,0,1,.83-5.05l15-28.77C305.38,515.26,316.89,518.11,316.89,526.69Z" transform="translate(-96.3 -43.38)"/><circle class="cls-11" cx="157.75" cy="524.79" r="35.1"/><polygon class="cls-3" points="231.66 462.21 150.23 511.27 150.23 555.48 257.08 493.04 231.66 462.21"/><polygon class="cls-3" points="266.04 263.76 245.61 217.47 116.74 187.87 135.92 209.97 201.82 254.18 266.04 263.76"/><path class="cls-12" d="M868,444s-62.45,46.7-73.34,106.76c0,0,37.48-55.26,58.33-53.9l66.73,53.9Z" transform="translate(-96.3 -43.38)"/><path class="cls-13" d="M888.38,434.17s95.77-23.79,148,16.24c0,0-22.64,8.43-41.6,12.2-20,.1-28.47,1.1-39.1,11.16-2.19,13.86,13.07,66.13,3.37,99.6Z" transform="translate(-96.3 -43.38)"/><path class="cls-4" d="M888.38,434.17l79.51,156.58s-7.09,15.43-21.9,13.76L868,444Z" transform="translate(-96.3 -43.38)"/><path class="cls-4" d="M546,607.43,442.73,569.89l-9.39-20.33L285.13,476.37l-30,51.61,160.39,81.28s48.79,19.4,57.86,21,98.84-2,98.84-2l-15.64-22.1Z" transform="translate(-96.3 -43.38)"/><polygon class="cls-14" points="188.78 432.99 172 426 153.86 426 135.09 461.87 141.76 476.25 158.76 484.6 188.78 432.99"/><path class="cls-15" d="M777.72,317.17l-29.59-42.12s-91-23.85-105.2-27.11c-13.56-.52-67-27.53-129.18,74.23l27.52,59.22,64.65-31.28,49.62-13.34,50.78,12.73Z" transform="translate(-96.3 -43.38)"/><path class="cls-3" d="M513.73,319.66s-53,3.34-60.05,2.51-84.25-23.78-87.55-23.78-3.76,6.26-3.76,6.26l88,43L459.54,361l81.74,17.93Z" transform="translate(-96.3 -43.38)"/><polygon class="cls-16" points="172.21 229.57 250.4 257.51 290.44 345.25 209.74 292.55 172.21 229.57"/><polygon class="cls-4" points="86.19 197.15 131.23 200.9 172.21 229.57 209.74 292.55 119.97 240.31 86.19 197.15"/><polygon class="cls-3" points="138.43 244.84 8 292.55 17.07 310.38 28.33 298.49 18.32 370.43 60.86 290.99 142.18 263.76 172.21 265.33 138.43 244.84"/><polygon class="cls-3" points="730.21 204.03 711.89 217.78 721.45 228.12 749.91 207.47 730.21 204.03"/><path class="cls-4" d="M798.78,312.16s28.35-17.3,21.27-36.9a46.51,46.51,0,0,0-11.85-14.07c-8.82-6.72-22.17-10.17-38.82,6.15,0,0-11.26,16.89,8.34,44.83Z" transform="translate(-96.3 -43.38)"/><path class="cls-3" d="M777.72,278.7l-28.93,29.45,10.81,11.11,38.13-32.42S792,270.88,777.72,278.7Z" transform="translate(-96.3 -43.38)"/><path class="cls-4" d="M761.13,314c0,4.66-3.22,8.44-7.19,8.44s-7.2-3.78-7.2-8.44a9.23,9.23,0,0,1,2-5.89,6.68,6.68,0,0,1,5.16-2.56C757.92,305.59,761.13,309.38,761.13,314Z" transform="translate(-96.3 -43.38)"/><path class="cls-17" d="M746.75,283.88l-26.41,14.38-.13.07h-.16c-13.87-4.22-27.68-8.62-41.52-13-6.9-2.19-13.82-4.35-20.71-6.61l-10.34-3.46-5.15-1.76c-.86-.3-1.72-.6-2.59-.94l-.68-.28a2.13,2.13,0,0,0-.42-.1,10.2,10.2,0,0,0-1.24-.1,81.27,81.27,0,0,0-10.69.77c-3.58.44-7.15,1-10.7,1.6q-10.68,1.86-21.19,4.53c-7,1.75-13.94,3.76-20.76,6.13a152.28,152.28,0,0,0-19.88,8.42l-.38-1.69c3.52.22,7,.61,10.41,1.09s6.87,1.05,10.27,1.75A186.44,186.44,0,0,1,594.63,300,149.58,149.58,0,0,1,614,307.64a124.61,124.61,0,0,1,17.95,10.45,137.36,137.36,0,0,0-18.25-9.79,171.41,171.41,0,0,0-19.39-7.18,188,188,0,0,0-20.14-4.86,169.25,169.25,0,0,0-20.44-2.63l-3.24-.19,2.86-1.5a152.8,152.8,0,0,1,20.09-8.62c6.86-2.43,13.85-4.49,20.9-6.29s14.17-3.25,21.35-4.47c3.58-.6,7.18-1.14,10.8-1.57a84.32,84.32,0,0,1,11-.73,10.42,10.42,0,0,1,1.47.13,3.36,3.36,0,0,1,.89.25l.57.24c.82.32,1.67.63,2.52.93l5.13,1.77,10.3,3.45L679,283.88l41.3,13.61H720Z" transform="translate(-96.3 -43.38)"/></svg>