<svg width="30" height="30" viewBox="0 0 30 30" fill="none" xmlns="http://www.w3.org/2000/svg">
<path d="M29.5475 13.0227L24.2326 2.16409C23.5801 0.829091 22.3114 0 20.9251 0H9.10408C7.72035 0 6.45412 0.826364 5.79913 2.15727L0.457962 13.0214C-0.153279 14.265 -0.152029 15.7486 0.457962 16.9909L5.79788 27.8441C6.45162 29.175 7.71785 30 9.10158 30H20.9239C22.3114 30 23.5789 29.1709 24.2313 27.8359L29.5463 16.9773C30.1513 15.7391 30.1525 14.2609 29.5475 13.0227ZM27.3413 15.6941L22.0264 26.5527C21.8089 26.9973 21.3864 27.2727 20.9239 27.2727H9.10283C8.64158 27.2727 8.21909 26.9973 8.00159 26.5555L2.66293 15.7023C2.44918 15.2673 2.44793 14.7464 2.66293 14.31L8.00284 3.44591C8.22034 3.00273 8.64283 2.72727 9.10408 2.72727H20.9251C21.3876 2.72727 21.8101 3.00273 22.0276 3.44727L27.3425 14.3059C27.555 14.7395 27.5538 15.2591 27.3413 15.6941ZM13.7503 6.81818H16.2502V17.7273H13.7503V6.81818ZM13.7503 20.4545H16.2502V23.1818H13.7503V20.4545Z" fill="#057AFF"/>
</svg>
