<svg xmlns="http://www.w3.org/2000/svg" xmlns:xlink="http://www.w3.org/1999/xlink" viewBox="0 0 1135.53 497.48"><defs><style>.cls-1{fill:#1d1d1b;}.cls-2{fill:#1c1d1b;}.cls-3{fill:#3a3a3a;}.cls-4{fill:url(#linear-gradient);}.cls-5{fill:#9de4ff;}.cls-6{fill:#ff7f40;}.cls-7{fill:#403e3f;}.cls-11,.cls-12,.cls-13,.cls-8{fill:none;}.cls-8{stroke:#0068b5;stroke-width:2px;}.cls-11,.cls-12,.cls-13,.cls-14,.cls-8{stroke-miterlimit:10;}.cls-9{fill:#0068b5;}.cls-10{fill:#36c9ff;}.cls-11{stroke:#000;}.cls-12,.cls-13,.cls-14{stroke:#b7b7b7;}.cls-12{stroke-width:5px;}.cls-13,.cls-14{stroke-width:4px;}.cls-14{fill:#ccc;}.cls-15{fill:url(#linear-gradient-2);}.cls-16{fill:url(#linear-gradient-3);}.cls-17{fill:url(#linear-gradient-4);}.cls-18{fill:url(#linear-gradient-5);}.cls-19{fill:#7c7c7c;}</style><linearGradient id="linear-gradient" x1="211.06" y1="496.15" x2="1206.67" y2="496.15" gradientUnits="userSpaceOnUse"><stop offset="0" stop-color="#36c9ff"/><stop offset="0.34" stop-color="#36beff"/><stop offset="0.93" stop-color="#36a2ff"/><stop offset="0.99" stop-color="#369eff"/></linearGradient><linearGradient id="linear-gradient-2" x1="1019.48" y1="349.7" x2="1072.91" y2="257.16" gradientUnits="userSpaceOnUse"><stop offset="0" stop-color="#c9fefe"/><stop offset="0.2" stop-color="#c5fbfc"/><stop offset="0.41" stop-color="#b7f2f7"/><stop offset="0.63" stop-color="#a2e4ef"/><stop offset="0.86" stop-color="#84d0e3"/><stop offset="1" stop-color="#6cc0da"/></linearGradient><linearGradient id="linear-gradient-3" x1="1161.74" y1="450.58" x2="1224.56" y2="450.58" gradientUnits="userSpaceOnUse"><stop offset="0" stop-color="#c9fefe"/><stop offset="0.21" stop-color="#c5fbfd"/><stop offset="0.42" stop-color="#baf4f8"/><stop offset="0.62" stop-color="#a6e7f1"/><stop offset="0.82" stop-color="#8bd5e6"/><stop offset="1" stop-color="#6cc0da"/></linearGradient><linearGradient id="linear-gradient-4" x1="681.21" y1="512.91" x2="802.32" y2="512.91" xlink:href="#linear-gradient-3"/><linearGradient id="linear-gradient-5" x1="239.62" y1="463.54" x2="373.65" y2="463.54" xlink:href="#linear-gradient-3"/></defs><g id="Layer_5" data-name="Layer 5"><path class="cls-1" d="M1183.19,538.56s7,106.82-35.06,128a194.7,194.7,0,0,1-58.36-.47c-35.29-17.88-27.64-63.88-27.64-63.88L1082,529.62l43.06-40.24,43.76,6.83Z" transform="translate(-89.03 -222.82)"/><path class="cls-1" d="M784.15,650.42s-15.89,68.47-70.59,69.88c-57.18-3.18-96.36-3.88-99.53-5.3s-18.12-23.29-15.41-49.41,34.82-128.82,49.64-140.12,25.06-49.05,76.24-22.58,70.23,20.82,65.65,71.29S784.15,650.42,784.15,650.42Z" transform="translate(-89.03 -222.82)"/><path class="cls-2" d="M261.82,653.94s1.59,53.12,40.77,57.71,44.82,2.82,44.82,2.82,45-11.47,57.88-52.59S267.4,646.42,261.82,653.94Z" transform="translate(-89.03 -222.82)"/><ellipse class="cls-3" cx="625.43" cy="393.82" rx="72.82" ry="100.17"/><ellipse class="cls-3" cx="1052.18" cy="340.65" rx="45.64" ry="104.69"/></g><g id="Layer_3" data-name="Layer 3"><path class="cls-1" d="M390.12,260.24l-6.71,6L338.59,256l-8.83-10.94s-115-22.24-118.7-22.24-12.24,4.94-12.24,4.94c-3.53,6,6,12.71,6,20.12s-45.88,53.3-45.88,53.3l21.18,11.64,10.59-24.7,53.64,12.7,34.24-40.58,40.59,10.23,18.35-4.94,42.35,9.18,3.53,10.23,89.3,13.77,4.23-22.24ZM238.59,294.47l-40.24-11.29c0-2.36,23.77-28.47,23.77-28.47,5.64,1.41,3.06,8,3.06,8-7.06,16.23-4,20.47-4,20.47,1.41-13.65,17.64-14.36,20-15.36s12.7.77,12,0,6.35-10.06,6.35-10.06l9.65,2.36Z" transform="translate(-89.03 -222.82)"/><path class="cls-1" d="M175.53,307s-39,64.8-49.41,89.39c-9.4,22.19-54.36,108.71,2.59,180.47s138.58,60.24,138.58,60.24l-4.47,12-30.27,8.7s-99.37-39.52-126.9-90.11c-18.59-34.17-18.46-80.47-14.43-106.79A167.35,167.35,0,0,1,100,427.47c9.38-25,25.91-67.35,45.68-97.71,8.69-13.35,20.47-29.17,20.47-29.17Z" transform="translate(-89.03 -222.82)"/></g><g id="Layer_2" data-name="Layer 2"><path class="cls-4" d="M1206.65,521.59c.53,3.35-10.24,70.23-10.24,70.23l-15.88,4.77s5.65-46.06-9.88-72.53-31.77-29.3-37.06-27.53-28.06,26.47-39.71,63.53-6.17,49.94-6.17,49.94l-23.3,18.35s-283.06,32.3-284.47,32.83,2.47-42.89-2.65-66.53-20.64-57.71-30.17-64.06c-9.14-6.09-41.75-17-62.83-4.24C652.18,545.76,637,665.59,637,665.59l-16.06,19.76L487.53,670.18,277.18,659.76l-17.3.12-20.59,8.94s-24.94-23.53-24.35-27.41,2.35-18.23,2.35-21.53-6.23-58.94-6.23-58.94,5.88-24,11.18-25.29c0,0,8.23-28.24,13.17-32.47s130.24-60.47,137.77-60.24c0,0,79.06-24,98.82-27.29s85.06-75.12,141.35-87.3,114-21,142.41-21.35,138.18,1.59,165.36,4.94,91.06,6.88,111,12.88,97.23,75,100.41,76.24,67.76,21.35,69.18,27.35-.36,81.53,0,84.88C1201.71,513.29,1206.12,518.24,1206.65,521.59Z" transform="translate(-89.03 -222.82)"/><path class="cls-5" d="M814.35,440.59s194.36-18.83,226.59-19.06c14.63-.11,46.94-16.24,48.71-19.77s-10.59-34.94-14.12-36.35-32.12-25.76-40.59-27.53-102-24.66-140.82-12.7C858.22,336.22,826.77,394.92,814.35,440.59Z" transform="translate(-89.03 -222.82)"/><path class="cls-5" d="M852.12,331.53S804.47,382,794.24,418.35c0,0-312.41,13.62-320.15-3.25,0,0,105.55-81.1,128-83.57S824.24,323.76,852.12,331.53Z" transform="translate(-89.03 -222.82)"/><path class="cls-6" d="M652,497.76s-18.59,30.83-23.06,33c0,0-104,16-125.18,14.35,0,0-28.47-11.53-31.05-13.88,0,0,29.88-19.77,38.82-21.18S603.29,494,652,497.76Z" transform="translate(-89.03 -222.82)"/><path class="cls-7" d="M453.41,517.29s1.41,38.36-1.65,44c0,0-28,19.53-32.7,19.53,0,0-133.65-.23-141.88-2.11,0,0-26.36-14.36-29.65-18.36,0,0-1.88-43.76,0-45.88C247.53,514.47,347.29,498.24,453.41,517.29Z" transform="translate(-89.03 -222.82)"/><path class="cls-7" d="M522.59,584.82l66.12-4.58,7.53,6.47L597.76,636l-44.7-1.41s-38.82-27.3-39.53-30.35C513.53,604.24,519.41,588.94,522.59,584.82Z" transform="translate(-89.03 -222.82)"/><path class="cls-7" d="M213.58,583.73l30.07,17.8-21.71,27.35-5.19-2.23S216,585.17,213.58,583.73Z" transform="translate(-89.03 -222.82)"/><path class="cls-7" d="M448.71,611.88s-158.12,7.53-187.53,0l-27.06,32.47s242.59,8.47,250.59,11.53C484.71,655.88,454.59,621.06,448.71,611.88Z" transform="translate(-89.03 -222.82)"/><path class="cls-8" d="M1089.78,400s27.4,54.05,26,57.58c0,0-40.94,121.06-42.35,130.94,0,0-11.65,10.59-11.65,14.82,0,0-216,31.06-235.76,29.65,0,0,4.24-158.82,2.12-162,0,0-10.94-27.18-13.77-30.35" transform="translate(-89.03 -222.82)"/><path class="cls-8" d="M948.45,323S978,408.22,979.11,425.64c3.6,16.71,7.48,28.36,12.07,44.6,0,0-6.36,45.88-6,53.29s3.17,72.35,3.53,87.53" transform="translate(-89.03 -222.82)"/><path class="cls-8" d="M794.92,416.1s3.55,27.66-67.74,37.19c-59.3,11.3-111.64,5.82-137.94,46.25" transform="translate(-89.03 -222.82)"/><path class="cls-9" d="M638.24,440.59c-11.78,4.53-23.94,7.92-36,11.65s-24.11,7.23-36.06,11.17-23.89,7.89-35.58,12.49c-5.85,2.29-11.64,4.74-17.29,7.49a104.51,104.51,0,0,0-16.29,9.43,95.53,95.53,0,0,1,15.85-10.31c5.59-2.94,11.34-5.56,17.14-8,11.64-4.91,23.58-9,35.55-13q18-5.68,36.25-10.74l18.23-5C626.16,444.15,632.24,442.51,638.24,440.59Z" transform="translate(-89.03 -222.82)"/><path class="cls-6" d="M235.41,503.18l7.18,15.76-8.47,24.24-11.6-8.49S231.53,503.65,235.41,503.18Z" transform="translate(-89.03 -222.82)"/><path class="cls-10" d="M856.47,429.06l-8,18.12s10.82,11.53,19.53,9.17c0,0,8.24-23.29,13.41-24.23s35.06-4.94,35.06-4.94,21.41-17.89,1.65-28.24l-66-.94S839.53,414.92,856.47,429.06Z" transform="translate(-89.03 -222.82)"/><path class="cls-11" d="M972,449.29s6.59,4.36,5.18,8.95c0,0-26.47,1.05-31.42,4.35,0,0-4.47-3.77-2.82-7.77C942.94,454.82,952.35,449.76,972,449.29Z" transform="translate(-89.03 -222.82)"/><path class="cls-9" d="M469.41,567.31l33,.71,33,.8c11,.28,22,.37,33,.95a33.86,33.86,0,0,1,8.19,2.09,43.28,43.28,0,0,1,7.5,3.72,47.81,47.81,0,0,1,6.67,5,49,49,0,0,1,5.63,6.08l-.15.13a53.17,53.17,0,0,0-12.85-10,48.69,48.69,0,0,0-7.39-3.29,31.74,31.74,0,0,0-7.79-1.73c-10.93-.31-21.93-.85-32.89-1.34L502.33,569l-32.92-1.51Z" transform="translate(-89.03 -222.82)"/><path class="cls-9" d="M653.44,536.45q-10.58,3.48-21.11,7.12c-7,2.4-14,4.83-20.93,7.51-1.72.69-3.44,1.39-5.07,2.17-.39.2-.81.4-1.16.61a2.5,2.5,0,0,0-.81.66,10.52,10.52,0,0,0-1.17,2.22,48,48,0,0,0-1.71,5.16q-.76,2.64-1.39,5.34c-.88,3.57-1.62,7.19-2.3,10.83-.34,1.81-.64,3.64-.89,5.47a53.55,53.55,0,0,0-.56,5.51h-.2a56.55,56.55,0,0,1,.27-11.19c.38-3.72,1-7.41,1.73-11.08A59.15,59.15,0,0,1,601.37,556a12.71,12.71,0,0,1,1.53-2.63,4.42,4.42,0,0,1,1.36-1.06c.45-.25.88-.44,1.32-.65,1.75-.76,3.49-1.4,5.25-2,7-2.52,14.1-4.75,21.19-7s14.23-4.3,21.36-6.36Z" transform="translate(-89.03 -222.82)"/><line class="cls-8" x1="188.14" y1="355.89" x2="170.5" y2="389.06"/><line class="cls-8" x1="330.02" y1="358" x2="359.67" y2="389.06"/><polygon class="cls-9" points="123.39 343.83 141.91 360.91 122.1 345.35 123.39 343.83"/><polygon class="cls-9" points="547.57 443.69 508.44 426.67 508.78 426.73 395.67 433.06 508.69 425.28 508.85 425.27 509.02 425.34 548.36 441.85 547.57 443.69"/><line class="cls-8" x1="145.08" y1="421.53" x2="133.49" y2="429.12"/><path class="cls-12" d="M771.43,616.5c0,44.27-25.66,80.15-57.3,80.15s-57.3-35.88-57.3-80.15,25.65-80.15,57.3-80.15A44.46,44.46,0,0,1,740.06,545l.74.54C759,559,771.43,585.71,771.43,616.5Z" transform="translate(-89.03 -222.82)"/><polyline class="cls-13" points="651.6 323.75 647.79 353.05 629.38 381.47"/><polyline class="cls-13" points="679.65 368.03 658.37 369.08 635.61 390.48"/><polyline class="cls-13" points="681.11 405.83 659.96 409.35 635.13 393.07"/><polyline class="cls-13" points="659.09 456.34 652.11 428.2 630.81 404.05"/><polyline class="cls-13" points="632.92 471.3 624.22 444.11 627.92 406.11"/><polyline class="cls-13" points="591.89 456.94 609.02 439.25 619.14 403.61"/><polyline class="cls-13" points="573.29 422.58 590.19 404.45 617.48 400.7"/><polyline class="cls-13" points="573.78 363.42 590.05 382.64 617.18 388.17"/><polyline class="cls-13" points="588.23 334.55 606.45 349.97 618.87 384.16"/><polyline class="cls-13" points="627.8 313.66 620.92 341.86 627.11 379.22"/><ellipse class="cls-14" cx="626.2" cy="393.9" rx="10.16" ry="14.21"/><path class="cls-12" d="M1177.05,579c0,34.51-14.86,62.48-33.18,62.48s-33.17-28-33.17-62.48,14.85-62.48,33.17-62.48c5.41,0,10.51,2.43,15,6.75l.42.42C1169.86,534.1,1177.05,554.94,1177.05,579Z" transform="translate(-89.03 -222.82)"/><polyline class="cls-13" points="1070.18 301.61 1067.98 324.46 1057.32 346.61"/><polyline class="cls-13" points="1086.42 336.13 1074.1 336.95 1060.93 353.63"/><polyline class="cls-13" points="1087.27 365.6 1075.02 368.34 1060.65 355.65"/><polyline class="cls-13" points="1074.52 404.98 1070.48 383.03 1058.15 364.21"/><polyline class="cls-13" points="1059.37 416.63 1054.33 395.44 1056.48 365.81"/><polyline class="cls-13" points="1035.61 405.44 1045.53 391.65 1051.39 363.87"/><polyline class="cls-13" points="1024.85 378.65 1034.63 364.52 1050.43 361.6"/><polyline class="cls-13" points="1025.13 332.54 1034.55 347.52 1050.26 351.83"/><polyline class="cls-13" points="1033.49 310.03 1044.04 322.05 1051.23 348.7"/><polyline class="cls-13" points="1056.41 293.75 1052.42 315.73 1056 344.85"/><ellipse class="cls-14" cx="1055.48" cy="356.3" rx="5.88" ry="11.08"/></g><g id="Layer_6" data-name="Layer 6"><path class="cls-15" d="M909.65,307s-6-12.49,12-21c0,0,.7-16.59,25.06-13.41,0,0,28.23-11,49.41-.41,0,0,50.47-3.78,59.64,15.08,0,0,29-4.08,37.06,16,0,0,21.18,7.06,16.24,21.18,0,0,16,5.29,13.11,24.35,0,0,26.42,32.12,12.3,43.42,0,0-22.25,6-27.88-5.65,0,0-27.88-2.76-31.06-11.09,0,0-25.41-9-24.71-16.79,0,0-15.17,5.29-25.06-3.53,0,0-13.45,3.05-22.23-11.3,0,0-13.06,3.53-20.12-5.29,0,0-7.71,5.65-18.32-3.18,0,0-20.85-.72-26.85-8C938.24,327.46,913.88,329.68,909.65,307Z" transform="translate(-89.03 -222.82)"/><path class="cls-16" d="M1165.18,408.47c27.36-5.48,31.06,1.06,34.94,7.06,0,0,20.47,7.41,14.82,21.18,0,0,15.18,15.17,7.41,23.29,0,0,3.44,18.72-8.47,20.82,0,0-4.94,20.12-16.23,12,0,0-10.94-9.53-4.59-21.17,0,0-8.82-2.12-7.77-14.83,0,0-13.76-2.11-11.29-14.47,0,0-6.82-9.92-8.82-20.47C1165.18,421.88,1157.43,410,1165.18,408.47Z" transform="translate(-89.03 -222.82)"/><path class="cls-17" d="M690.12,487.88c-1.82,3.51-16.94,17.3-3.18,20.47,0,0,9.53,9.53,19.06,4.24,0,0,7.41,9.53,21.53,5.29,0,0,9.18,11.3,24.71,10.59,0,0,9,14.51,19.41,9.88,0,0,17.29,15.42,21.88,6.83,0,0,15.88-8.24,4.94-19.89,0,0-1.41-18-11.65-16.94,0,0-2.82-11.62-15.88-8.81,0,0-7.41-16.36-19.06-9.07,0,0-11.29-13.18-23.29-7.18C728.59,483.29,700,468.82,690.12,487.88Z" transform="translate(-89.03 -222.82)"/><path class="cls-18" d="M240.12,492.82c5.61-15.76,4.59-32.82,33.17-37.06,0,0,4.95-18,25.06-16.94,0,0,20.47-15.88,27.89-7.76,0,0,32.82-14.15,39.52-2.31,0,0,16.24,18.19,2.12,23.84,0,0-20.12,21.17-32.82,14.12,0,0-8.82,16.47-20.12,12.47,0,0-5.65,10.82-17.65,8.7,0,0-4.58,11.47-16.58,9.27,0,0-10.42,9.83-20.47,4.14C260.24,501.29,235.88,504.72,240.12,492.82Z" transform="translate(-89.03 -222.82)"/><line class="cls-19" x1="390.51" y1="61.35" x2="586.19" y2="73.64"/><path class="cls-9" d="M479.54,284.17c16.36.2,32.69.79,49,1.52,8.16.33,16.32.8,24.48,1.21l24.47,1.42L602,290c8.15.62,16.3,1.17,24.44,1.87,16.29,1.31,32.57,2.77,48.82,4.63-16.36-.2-32.69-.78-49-1.52-8.16-.32-16.32-.8-24.48-1.2l-24.46-1.43-24.46-1.64c-8.14-.62-16.3-1.18-24.44-1.87C512.07,287.48,495.79,286,479.54,284.17Z" transform="translate(-89.03 -222.82)"/><line class="cls-19" x1="390.76" y1="66.16" x2="584.43" y2="96.74"/><path class="cls-9" d="M479.79,289c16.27,1.73,32.48,3.85,48.66,6.11,8.1,1.09,16.18,2.32,24.26,3.49l24.23,3.71,24.19,3.93c8,1.38,16.12,2.69,24.16,4.15,16.09,2.84,32.16,5.82,48.17,9.19-16.27-1.73-32.47-3.85-48.66-6.11-8.1-1.09-16.17-2.33-24.26-3.49l-24.22-3.72-24.19-3.93c-8.06-1.38-16.12-2.7-24.16-4.15C511.88,295.32,495.8,292.34,479.79,289Z" transform="translate(-89.03 -222.82)"/><line class="cls-19" x1="388.6" y1="69.89" x2="577.28" y2="123.19"/><path class="cls-9" d="M477.63,292.71c15.95,3.65,31.79,7.67,47.59,11.83,7.92,2,15.79,4.22,23.68,6.34l23.62,6.56,23.55,6.76c7.84,2.33,15.69,4.58,23.5,7,15.64,4.72,31.25,9.58,46.75,14.83-16-3.64-31.8-7.67-47.6-11.83-7.91-2-15.78-4.22-23.68-6.34l-23.61-6.56-23.56-6.77c-7.83-2.32-15.68-4.58-23.49-7C508.74,302.81,493.13,298,477.63,292.71Z" transform="translate(-89.03 -222.82)"/></g></svg>