<svg xmlns="http://www.w3.org/2000/svg" xmlns:xlink="http://www.w3.org/1999/xlink" viewBox="0 0 837.73 266.06"><defs><style>.cls-1,.cls-13{stroke:#000;}.cls-1,.cls-10,.cls-13,.cls-3,.cls-4,.cls-5{stroke-miterlimit:10;}.cls-2{fill:#1d1d1b;}.cls-10,.cls-13,.cls-3,.cls-4{fill:none;}.cls-3,.cls-4,.cls-5{stroke:#b7b7b7;}.cls-3{stroke-width:5px;}.cls-4,.cls-5{stroke-width:4px;}.cls-5{fill:#ccc;}.cls-6{fill:url(#linear-gradient);}.cls-7{fill:#52d2ff;}.cls-8{fill:#ff7f40;}.cls-9{fill:#403e3f;}.cls-10{stroke:#0068b5;stroke-width:2px;}.cls-11{fill:#0068b5;}.cls-12{fill:#9de4ff;}.cls-14{fill:url(#linear-gradient-2);}</style><linearGradient id="linear-gradient" x1="290.32" y1="460.51" x2="1127.53" y2="460.51" gradientUnits="userSpaceOnUse"><stop offset="0.01" stop-color="#369eff"/><stop offset="0.07" stop-color="#36a2ff"/><stop offset="0.66" stop-color="#36beff"/><stop offset="1" stop-color="#36c9ff"/></linearGradient><linearGradient id="linear-gradient-2" x1="795.98" y1="438.89" x2="855" y2="438.89" gradientUnits="userSpaceOnUse"><stop offset="0.01" stop-color="#369eff"/><stop offset="0.54" stop-color="#36a0ff"/><stop offset="0.73" stop-color="#36a7ff"/><stop offset="0.86" stop-color="#36b2ff"/><stop offset="0.97" stop-color="#36c3ff"/><stop offset="1" stop-color="#36c9ff"/></linearGradient></defs><g id="Layer_3" data-name="Layer 3"><polygon class="cls-1" points="615.72 223.18 647.32 227.44 754.56 223.18 780.08 223.18 760.61 141.95 685.9 122.32 634.86 159.38 615.72 223.18"/><circle class="cls-2" cx="700.9" cy="203.49" r="61.54"/><path class="cls-3" d="M1040.76,548.52a49.78,49.78,0,1,1-27.27-44.43l.64.33A49.79,49.79,0,0,1,1040.76,548.52Z" transform="translate(-289.8 -344.89)"/><polyline class="cls-4" points="724.19 160.16 720.88 178.38 704.88 196.04"/><polyline class="cls-4" points="748.58 187.68 730.08 188.34 710.29 201.63"/><polyline class="cls-4" points="749.84 211.18 731.46 213.36 709.88 203.25"/><polyline class="cls-4" points="730.7 242.57 724.64 225.08 706.12 210.07"/><polyline class="cls-4" points="707.95 251.86 700.39 234.97 703.61 211.35"/><polyline class="cls-4" points="672.28 242.94 687.17 231.95 695.98 209.8"/><polyline class="cls-4" points="656.12 221.59 670.81 210.32 694.53 207.99"/><polyline class="cls-4" points="656.54 184.82 670.69 196.76 694.27 200.2"/><polyline class="cls-4" points="669.1 166.88 684.94 176.46 695.74 197.71"/><polyline class="cls-4" points="703.5 153.9 697.52 171.42 702.9 194.64"/><circle class="cls-5" cx="702.12" cy="203.77" r="8.83"/><polygon class="cls-1" points="86.71 215.82 117.1 228.46 224.34 224.21 249.86 224.21 230.39 142.97 155.68 123.35 104.64 160.41 86.71 215.82"/><circle class="cls-2" cx="170.68" cy="204.52" r="61.54"/><path class="cls-3" d="M510.54,549.55a49.78,49.78,0,1,1-27.27-44.43l.65.33A49.8,49.8,0,0,1,510.54,549.55Z" transform="translate(-289.8 -344.89)"/><polyline class="cls-4" points="193.97 161.19 190.66 179.41 174.66 197.07"/><polyline class="cls-4" points="218.36 188.71 199.86 189.37 180.08 202.66"/><polyline class="cls-4" points="219.63 212.21 201.24 214.39 179.66 204.28"/><polyline class="cls-4" points="200.48 243.6 194.42 226.11 175.9 211.1"/><polyline class="cls-4" points="177.73 252.89 170.17 236 173.39 212.38"/><polyline class="cls-4" points="142.06 243.97 156.96 232.97 165.76 210.82"/><polyline class="cls-4" points="125.9 222.61 140.59 211.35 164.31 209.02"/><polyline class="cls-4" points="126.33 185.85 140.47 197.79 164.06 201.23"/><polyline class="cls-4" points="138.88 167.9 154.72 177.49 165.52 198.74"/><polyline class="cls-4" points="173.29 154.93 167.31 172.45 172.68 195.67"/><circle class="cls-5" cx="171.9" cy="204.79" r="8.83"/></g><g id="Layer_1" data-name="Layer 1"><path class="cls-6" d="M892.53,422.94s139.67,11.4,185.93,27.06,48.41,28.65,48.41,28.65-3.07,24.6-2.5,24.83,4.81,7-.2,14.36l-2.62,23.86,6,20.22-32,11.62h-36s10-92.16-66.15-95.46c0,0-71.47-8.89-74.43,85l-3.87,13.07L530,569s10.78-91.29-67.75-93.88-77.77,88.11-77.77,88.11-57.27-6.54-67.29-8.36c-7.84-6.64-25.75-27.8-26.66-30.53s1.14-31.67,1.14-31.67,15.83-8.43,16.63-9.12-3-13.44-3-13.44,4.9-16.85,2.73-20.1-6.83-10.77-6.83-10.77,9-18.34,4.55-22.79,57.53-1.82,79.86-10.82,117.69-56.28,193.56-59.81,147.42,3.42,184.1,16.06S882.39,415.08,892.53,422.94Z" transform="translate(-289.8 -344.89)"/><path class="cls-7" d="M907.8,546.32s-357.57-14.85-364.26-12.57c0,0,2.43-20.81,52.26-20S877,535.27,877,535.27,896,540.05,907.8,546.32Z" transform="translate(-289.8 -344.89)"/><path class="cls-8" d="M1122,484.68l-1.21,3.95-4,1.83-2.58,6.53-41.47-3.65-22.33-19a4,4,0,0,1,3.34-4.4c3.88-1,48,4,54.84,6.53,0,0,4.48,5.7,6.23,6.23S1122,484.68,1122,484.68Z" transform="translate(-289.8 -344.89)"/><path class="cls-9" d="M1103.37,514.61s9.64,4.1,9.72,5.92-7.74,23.15-9.72,24.91c-2.23,2-12.61,13.75-14.43,14.28S1092.66,511.19,1103.37,514.61Z" transform="translate(-289.8 -344.89)"/><path class="cls-10" d="M1126,556.6s-29.61,4.94-37,3.12" transform="translate(-289.8 -344.89)"/><path class="cls-10" d="M1126.52,511.55s-17.45.2-25.39,3.11" transform="translate(-289.8 -344.89)"/><path class="cls-11" d="M1081.65,471c-7.77-2.25-15.55-4.46-23.38-6.47s-15.65-4.05-23.51-5.93c-15.72-3.74-31.5-7.19-47.39-10.1-15.86-3.1-31.85-5.38-47.87-7.39l-12-1.31c-1-.1-2-.23-3-.31l-3-.23-6-.44c-8-.82-16.13-.85-24.22-1.31a420.22,420.22,0,0,1,48.5,2.07c4,.33,8.05.9,12.07,1.38l6,.75c2,.26,4,.59,6,.89,4,.61,8,1.19,12,1.84l12,2.1c15.9,3.08,31.73,6.51,47.4,10.58,7.83,2.06,15.64,4.19,23.4,6.47l5.81,1.76,5.79,1.82Q1075.92,469,1081.65,471Z" transform="translate(-289.8 -344.89)"/><path class="cls-12" d="M763.34,361.87l-5,3.88s123.34,58.48,127,68.35c0,0,8.46-6.78,7.21-11.16S771.32,361.93,763.34,361.87Z" transform="translate(-289.8 -344.89)"/><path class="cls-12" d="M866.56,438.89,660.13,428.63s-13.9-68.81-13.22-69.49,92.51,5.47,122.36,18.91S861,428.86,866.56,438.89Z" transform="translate(-289.8 -344.89)"/><path class="cls-12" d="M484.68,408.35l32.59,6.16s30.48,7.67,55.14,8.43l87.72,5.69-13.22-69.49s-87.95,5.07-106.29,10.2c-18.76,5.24-47.45,16.19-47.45,16.19s-7.8,2.26-8.49,6.65C483.78,398,484.68,408.35,484.68,408.35Z" transform="translate(-289.8 -344.89)"/><path class="cls-10" d="M866.56,438.89s11.05,92.5,4.55,125.54c0,0-298.48-8-303.15-7.75,0,0-53.54-69.49-55.59-75s-24.27-35.09-25.64-51.49,2.7-21,2.7-21" transform="translate(-289.8 -344.89)"/><rect class="cls-13" x="136.03" y="79.33" width="42.68" height="22.33" rx="6.49"/><path class="cls-10" d="M695.67,444.2l31.9,1.29,6.61,5.47s2.5,6.12-8,4.1l-4.63-3.41-22.48-1-6.61,4.81s-11.32-.09-7.59-5.47Z" transform="translate(-289.8 -344.89)"/><path class="cls-10" d="M511.59,438.57l31.9,1.29,6.61,5.47s2.5,6.11-8,4.1L537.49,446,515,445l-6.61,4.82s-11.32-.09-7.59-5.47Z" transform="translate(-289.8 -344.89)"/><path class="cls-11" d="M306.38,415.61a78.68,78.68,0,0,1,13.8,13.67,108.51,108.51,0,0,1,10.7,16.08c.77,1.41,1.45,2.87,2.18,4.3l1.07,2.16.95,2.22,1.88,4.44,1.61,4.55.81,2.27c.25.76.45,1.54.67,2.31l1.32,4.64a23.51,23.51,0,0,1,.58,2.34l.51,2.35,1,4.71-.12-.23A67.64,67.64,0,0,0,354,488.63a119.72,119.72,0,0,0,11.62,5.65l3,1.23c1,.41,2,.76,3,1.14,2,.78,4.07,1.42,6.12,2.11s4.14,1.23,6.2,1.86l6.28,1.61-6.3-1.52c-2.08-.59-4.18-1.11-6.24-1.76s-4.14-1.26-6.16-2c-1-.37-2.05-.71-3.06-1.1l-3-1.18a122,122,0,0,1-11.76-5.5c-1.9-1.05-3.78-2.12-5.6-3.31a50.13,50.13,0,0,1-5.3-3.83l-.09-.08,0-.14-1.08-4.66-.54-2.33a22.4,22.4,0,0,0-.61-2.31l-1.38-4.58c-.24-.76-.45-1.53-.7-2.28l-.84-2.24-1.66-4.48-1.93-4.37-1-2.18-1.1-2.12c-.74-1.4-1.43-2.84-2.22-4.22a106.8,106.8,0,0,0-10.79-15.67,76.85,76.85,0,0,0-13.6-13.09Z" transform="translate(-289.8 -344.89)"/><path class="cls-8" d="M303,435.39l18.44,3.5s12.08,38.27,9.8,39.64-22-.45-24.18-2.33l-1.68-6.1s4.23-18.86,2.73-20.1-6.83-10.77-6.83-10.77Z" transform="translate(-289.8 -344.89)"/><path class="cls-11" d="M292.09,491.74c3.23,1.44,6.55,2.8,9.86,4.1s6.67,2.54,10,3.72,6.76,2.31,10.18,3.36,6.86,2,10.31,2.95c-3.49-.76-7-1.56-10.45-2.47s-6.91-1.86-10.34-2.89-6.85-2.11-10.25-3.27-6.77-2.35-10.14-3.66Z" transform="translate(-289.8 -344.89)"/><path class="cls-10" d="M386.18,545.36s-88.33-12.52-95.62-21" transform="translate(-289.8 -344.89)"/><path class="cls-14" d="M848.38,440.18l6,13.55s-8.1,8.63-14.62,6.87c0,0-6.16-17.43-10-18.14s-26.24-3.69-26.24-3.69-16-13.38-1.23-21.13l49.39-.7S861.06,429.6,848.38,440.18Z" transform="translate(-289.8 -344.89)"/><path class="cls-10" d="M646.91,359.14l13.22,69.49S672,446.65,672,450s-.68,17.94-.45,23.52,4.62,22.49,2.71,44.85a75.31,75.31,0,0,1,2.06,40.93" transform="translate(-289.8 -344.89)"/></g></svg>