<svg xmlns="http://www.w3.org/2000/svg" xmlns:xlink="http://www.w3.org/1999/xlink" viewBox="0 0 995.61 584.58"><defs><style>.cls-1{fill:#1d1d1b;}.cls-2{fill:#1c1d1b;}.cls-3{fill:#3a3a3a;}.cls-4{fill:url(#linear-gradient);}.cls-5{fill:#9de4ff;}.cls-6{fill:#403e3f;}.cls-11,.cls-12,.cls-14,.cls-7{fill:none;}.cls-7{stroke:#0068b5;}.cls-11,.cls-12,.cls-13,.cls-14,.cls-19,.cls-7{stroke-miterlimit:10;}.cls-14,.cls-7{stroke-width:2px;}.cls-8{fill:#ff7f40;}.cls-9{fill:#36c9ff;}.cls-10{fill:#0068b5;}.cls-11,.cls-12,.cls-13{stroke:#b7b7b7;}.cls-11{stroke-width:5px;}.cls-12,.cls-13{stroke-width:4px;}.cls-13{fill:#ccc;}.cls-14{stroke:#000;}.cls-15{fill:#212121;}.cls-16{fill:#898989;}.cls-17{fill:#707070;}.cls-18{fill:url(#linear-gradient-2);}.cls-19{fill:#282828;stroke:#4f4f4f;stroke-linecap:round;stroke-width:3px;}</style><linearGradient id="linear-gradient" x1="211.06" y1="496.15" x2="1206.67" y2="496.15" gradientUnits="userSpaceOnUse"><stop offset="0" stop-color="#36c9ff"/><stop offset="0.34" stop-color="#36beff"/><stop offset="0.93" stop-color="#36a2ff"/><stop offset="0.99" stop-color="#369eff"/></linearGradient><linearGradient id="linear-gradient-2" x1="356.8" y1="330.86" x2="770.51" y2="330.86" xlink:href="#linear-gradient"/></defs><g id="Layer_5" data-name="Layer 5"><path class="cls-1" d="M1183.19,538.56s7,106.82-35.06,128a194.7,194.7,0,0,1-58.36-.47c-35.29-17.88-27.64-63.88-27.64-63.88L1082,529.62l43.06-40.24,43.76,6.83Z" transform="translate(-211.06 -135.72)"/><path class="cls-1" d="M784.15,650.42s-15.89,68.47-70.59,69.88c-57.18-3.18-96.36-3.88-99.53-5.3s-18.12-23.29-15.41-49.41,34.82-128.82,49.64-140.12,25.06-49.05,76.24-22.58,70.23,20.82,65.65,71.29S784.15,650.42,784.15,650.42Z" transform="translate(-211.06 -135.72)"/><path class="cls-2" d="M261.82,653.94s1.59,53.12,40.77,57.71,44.82,2.82,44.82,2.82,45-11.47,57.88-52.59S267.4,646.42,261.82,653.94Z" transform="translate(-211.06 -135.72)"/><ellipse class="cls-3" cx="503.41" cy="480.92" rx="72.82" ry="100.17"/><ellipse class="cls-3" cx="930.15" cy="427.75" rx="45.64" ry="104.69"/></g><g id="Layer_2" data-name="Layer 2"><path class="cls-4" d="M1206.65,521.59c.53,3.35-10.24,70.23-10.24,70.23l-15.88,4.77s5.65-46.06-9.88-72.53-31.77-29.3-37.06-27.53-28.06,26.47-39.71,63.53-6.17,49.94-6.17,49.94l-23.3,18.35s-283.06,32.3-284.47,32.83,2.47-42.89-2.65-66.53-20.64-57.71-30.17-64.06c-9.14-6.09-41.75-17-62.83-4.24C652.18,545.76,637,665.59,637,665.59l-16.06,19.76L487.53,670.18,277.18,659.76l-17.3.12-20.59,8.94s-24.94-23.53-24.35-27.41,2.35-18.23,2.35-21.53-6.23-58.94-6.23-58.94,5.88-24,11.18-25.29c0,0,8.23-28.24,13.17-32.47s130.24-60.47,137.77-60.24c0,0,79.06-24,98.82-27.29s85.06-75.12,141.35-87.3,114-21,142.41-21.35,138.18,1.59,165.36,4.94,91.06,6.88,111,12.88,97.23,75,100.41,76.24,67.76,21.35,69.18,27.35-.36,81.53,0,84.88C1201.71,513.29,1206.12,518.24,1206.65,521.59Z" transform="translate(-211.06 -135.72)"/><path class="cls-5" d="M814.35,440.59s194.36-18.83,226.59-19.06c14.63-.11,46.94-16.24,48.71-19.77s-10.59-34.94-14.12-36.35-32.12-25.76-40.59-27.53-102-24.66-140.82-12.7C858.22,336.22,826.77,394.92,814.35,440.59Z" transform="translate(-211.06 -135.72)"/><path class="cls-5" d="M852.12,331.53S804.47,382,794.24,418.35c0,0-312.41,13.62-320.15-3.25,0,0,105.55-81.1,128-83.57S824.24,323.76,852.12,331.53Z" transform="translate(-211.06 -135.72)"/><path class="cls-6" d="M522.59,584.82l66.12-4.58,7.53,6.47L597.76,636l-44.7-1.41s-38.82-27.3-39.53-30.35C513.53,604.24,519.41,588.94,522.59,584.82Z" transform="translate(-211.06 -135.72)"/><path class="cls-6" d="M213.58,583.73l30.07,17.8-21.71,27.35-5.19-2.23S216,585.17,213.58,583.73Z" transform="translate(-211.06 -135.72)"/><path class="cls-6" d="M448.71,611.88s-158.12,7.53-187.53,0l-27.06,32.47s242.59,8.47,250.59,11.53C484.71,655.88,454.59,621.06,448.71,611.88Z" transform="translate(-211.06 -135.72)"/><path class="cls-7" d="M1089.78,400s27.4,54.05,26,57.58c0,0-40.94,121.06-42.35,130.94,0,0-11.65,10.59-11.65,14.82,0,0-216,31.06-235.76,29.65,0,0,4.24-158.82,2.12-162,0,0-10.94-27.18-13.77-30.35" transform="translate(-211.06 -135.72)"/><path class="cls-7" d="M948.45,323S978,408.22,979.11,425.64c3.6,16.71,7.48,28.36,12.07,44.6,0,0-6.36,45.88-6,53.29s3.17,72.35,3.53,87.53" transform="translate(-211.06 -135.72)"/><path class="cls-7" d="M794.92,416.1s3.55,27.66-67.74,37.19c-59.3,11.3-111.64,5.82-137.94,46.25" transform="translate(-211.06 -135.72)"/><path class="cls-8" d="M235.41,503.18l7.18,15.76-8.47,24.24-11.6-8.49S231.53,503.65,235.41,503.18Z" transform="translate(-211.06 -135.72)"/><path class="cls-9" d="M856.47,429.06l-8,18.12s10.82,11.53,19.53,9.17c0,0,8.24-23.29,13.41-24.23s35.06-4.94,35.06-4.94,21.41-17.89,1.65-28.24l-66-.94S839.53,414.92,856.47,429.06Z" transform="translate(-211.06 -135.72)"/><path class="cls-7" d="M972,449.29s6.59,4.36,5.18,8.95c0,0-26.47,1.05-31.42,4.35,0,0-4.47-3.77-2.82-7.77C942.94,454.82,952.35,449.76,972,449.29Z" transform="translate(-211.06 -135.72)"/><path class="cls-7" d="M1084.44,433.94s6.59,4.35,5.18,8.94c0,0-26.47,1.06-31.41,4.36,0,0-4.47-3.77-2.83-7.77C1055.38,439.47,1064.8,434.41,1084.44,433.94Z" transform="translate(-211.06 -135.72)"/><path class="cls-10" d="M469.41,567.31l33,.71,33,.8c11,.28,22,.37,33,.95a33.86,33.86,0,0,1,8.19,2.09,43.28,43.28,0,0,1,7.5,3.72,47.81,47.81,0,0,1,6.67,5,49,49,0,0,1,5.63,6.08l-.15.13a53.17,53.17,0,0,0-12.85-10,48.69,48.69,0,0,0-7.39-3.29,31.74,31.74,0,0,0-7.79-1.73c-10.93-.31-21.93-.85-32.89-1.34L502.33,569l-32.92-1.51Z" transform="translate(-211.06 -135.72)"/><path class="cls-10" d="M653.44,536.45q-10.58,3.48-21.11,7.12c-7,2.4-14,4.83-20.93,7.51-1.72.69-3.44,1.39-5.07,2.17-.39.2-.81.4-1.16.61a2.5,2.5,0,0,0-.81.66,10.52,10.52,0,0,0-1.17,2.22,48,48,0,0,0-1.71,5.16q-.76,2.64-1.39,5.34c-.88,3.57-1.62,7.19-2.3,10.83-.34,1.81-.64,3.64-.89,5.47a53.55,53.55,0,0,0-.56,5.51h-.2a56.55,56.55,0,0,1,.27-11.19c.38-3.72,1-7.41,1.73-11.08A59.15,59.15,0,0,1,601.37,556a12.71,12.71,0,0,1,1.53-2.63,4.42,4.42,0,0,1,1.36-1.06c.45-.25.88-.44,1.32-.65,1.75-.76,3.49-1.4,5.25-2,7-2.52,14.1-4.75,21.19-7s14.23-4.3,21.36-6.36Z" transform="translate(-211.06 -135.72)"/><line class="cls-7" x1="66.12" y1="442.99" x2="48.47" y2="476.16"/><line class="cls-7" x1="208" y1="445.1" x2="237.65" y2="476.16"/><polygon class="cls-10" points="1.37 430.93 19.88 448.01 0.07 432.45 1.37 430.93"/><polygon class="cls-10" points="425.55 530.79 386.42 513.77 386.75 513.83 273.65 520.16 386.66 512.38 386.83 512.37 386.99 512.43 426.33 528.95 425.55 530.79"/><line class="cls-7" x1="23.06" y1="508.63" x2="11.46" y2="516.22"/><path class="cls-11" d="M771.43,616.5c0,44.27-25.66,80.15-57.3,80.15s-57.3-35.88-57.3-80.15,25.65-80.15,57.3-80.15A44.46,44.46,0,0,1,740.06,545l.74.54C759,559,771.43,585.71,771.43,616.5Z" transform="translate(-211.06 -135.72)"/><polyline class="cls-12" points="529.58 410.85 525.77 440.15 507.35 468.57"/><polyline class="cls-12" points="557.63 455.13 536.34 456.18 513.59 477.58"/><polyline class="cls-12" points="559.08 492.93 537.93 496.45 513.11 480.17"/><polyline class="cls-12" points="537.06 543.44 530.09 515.3 508.78 491.15"/><polyline class="cls-12" points="510.89 558.39 502.19 531.21 505.9 493.21"/><polyline class="cls-12" points="469.86 544.04 486.99 526.35 497.12 490.71"/><polyline class="cls-12" points="451.26 509.68 468.16 491.55 495.45 487.8"/><polyline class="cls-12" points="451.76 450.52 468.03 469.74 495.16 475.27"/><polyline class="cls-12" points="466.2 421.65 484.42 437.07 496.85 471.26"/><polyline class="cls-12" points="505.78 400.76 498.9 428.95 505.08 466.32"/><ellipse class="cls-13" cx="504.18" cy="481" rx="10.16" ry="14.21"/><path class="cls-11" d="M1177.05,579c0,34.51-14.86,62.48-33.18,62.48s-33.17-28-33.17-62.48,14.85-62.48,33.17-62.48c5.41,0,10.51,2.43,15,6.75l.42.42C1169.86,534.1,1177.05,554.94,1177.05,579Z" transform="translate(-211.06 -135.72)"/><polyline class="cls-12" points="948.16 388.71 945.95 411.56 935.29 433.71"/><polyline class="cls-12" points="964.4 423.23 952.08 424.05 938.9 440.73"/><polyline class="cls-12" points="965.24 452.7 953 455.44 938.62 442.75"/><polyline class="cls-12" points="952.49 492.07 948.46 470.13 936.12 451.31"/><polyline class="cls-12" points="937.34 503.73 932.3 482.54 934.45 452.91"/><polyline class="cls-12" points="913.59 492.54 923.5 478.75 929.37 450.97"/><polyline class="cls-12" points="902.82 465.75 912.6 451.62 928.4 448.7"/><polyline class="cls-12" points="903.11 419.64 912.52 434.62 928.23 438.94"/><polyline class="cls-12" points="911.47 397.13 922.02 409.15 929.21 435.8"/><polyline class="cls-12" points="934.38 380.85 930.4 402.83 933.98 431.95"/><ellipse class="cls-13" cx="933.45" cy="443.4" rx="5.88" ry="11.08"/><path class="cls-14" d="M771.32,439l.57.37.3.19,1.14.73.15.09,1.16.75.17.1.51.33s0,0,0,0l.2.13" transform="translate(-211.06 -135.72)"/><path class="cls-15" d="M417.54,515.69h0c-36.58-1.57-88.77-3.78-122.79-5h0c-19.21-.7-45.69,3.57-47.2,3.78-4.94-.76-8.67-11.29-8.67-11.29s114.74-46.93,143.88-55.93S469.55,425.3,472,425s289.73,7.88,299.29,14c0,0-40.41,10.48-74.47,20-4.1,1.14-8.11,2.27-12,3.36-3.18.91-6.23,1.79-9.12,2.64-12.25,3.59-21.53,6.55-24.33,8-10.85,5.71-44.57,16.57-54.28,27.43L535.29,507h0l-23.11,2.45L496.1,519.47l-19.2-1h0l-17-.91s-17.6-.78-42.34-1.85" transform="translate(-211.06 -135.72)"/><polygon class="cls-16" points="318 377.17 315.2 380.79 314.31 380.68 318 377.17"/><path class="cls-16" d="M675.78,465c-12.25,3.59-21.53,6.55-24.33,8-10.85,5.71-44.57,16.57-54.28,27.43L535.29,507l52.65-50.13S636.17,457.84,675.78,465Z" transform="translate(-211.06 -135.72)"/><polygon class="cls-17" points="314.31 380.68 318 377.17 315.2 380.79 314.31 380.68"/><polygon class="cls-17" points="376.88 321.1 324.23 371.23 324.22 371.23 301.11 373.68 285.04 383.75 265.84 382.73 326.6 330.1 356.31 318.39 376.88 321.1"/><path class="cls-16" d="M537.66,465.82,476.9,518.45h0l-17-.91s-17.6-.78-42.34-1.85l92.12-66.44S535.94,453,537.66,465.82Z" transform="translate(-211.06 -135.72)"/><polygon class="cls-17" points="83.67 374.97 83.68 374.97 233.74 307.53 298.6 313.53 206.48 379.97 206.47 379.97 83.67 374.97"/><path class="cls-18" d="M356.8,249s-.57-13.15,15.43-14.86,164.15-16.94,205.71-9.71c10.27,1.78,22,7.84,26.6,10.37a18.88,18.88,0,0,1,3.52,2.5c16.09,14.47,152.24,138.55,162.45,202,0,0-281.71-18.85-303.43-14.28C467.08,425,373.94,261.54,356.8,249Z" transform="translate(-211.06 -135.72)"/><path class="cls-17" d="M383.26,269.28s-.51-11.65,13.68-13.17,145.53-15,182.38-8.61c9.11,1.58,19.52,6.95,23.58,9.19a16,16,0,0,1,3.12,2.23c14.26,12.82,135,122.82,144,179.07,0,0-249.76-16.72-269-12.67C481,425.32,398.46,280.43,383.26,269.28Z" transform="translate(-211.06 -135.72)"/><path class="cls-6" d="M453.41,517.29s1.41,38.36-1.65,44c0,0-28,19.53-32.7,19.53,0,0-133.65-.23-141.88-2.11,0,0-26.36-14.36-29.65-18.36,0,0-1.88-43.76,0-45.88C247.53,514.47,347.29,498.24,453.41,517.29Z" transform="translate(-211.06 -135.72)"/><path class="cls-8" d="M926.49,174c-.78,3.33-1.82,6.53-4.19,9.12a14.78,14.78,0,0,1-11,4.92q-1.41,6.48-2.81,13-8.41,39-16.76,78c-.39,1.8-1.45,1.55-2.62,1.55H786.61c-9.13,0-18.25,0-27.38,0-1.66,0-2.37-.35-2.75-2.14Q747,234,737.37,189.51c-.1-.46-.25-.9-.41-1.48a15.12,15.12,0,0,1-10.22-4.19c-8.63-8.21-5.32-23.73,5.86-27.37,7.19-2.34,15.39,2.17,17.78,9.88s.36,14-6,19.31c2.15,3,4.24,6.06,6.49,9,6.26,8.18,13,15.92,21.93,21.3a36.88,36.88,0,0,0,5.72,2.79c5,1.91,9.26,0,13.18-3a44.07,44.07,0,0,0,9.84-11.2c7.72-11.68,12.87-24.57,17.82-37.68a16,16,0,0,1-9-9.51c-2.5-6.93,0-15.33,5.84-19.24,8-5.4,18.66-1.44,21.73,8A16.84,16.84,0,0,1,828.85,167c2.29,5.62,4.46,11.33,6.93,16.89,4.07,9.13,8.41,18.14,14.87,25.87a45,45,0,0,0,6.71,6.52c5.86,4.62,11.79,3.63,17.77,0,9-5.52,15.82-13.17,22.14-21.39,2.27-2.95,4.38-6,6.66-9.19l-1.36-1.22a16.19,16.19,0,0,1-5.2-16.11c1.23-5.8,4.6-10,10.38-11.88,7.24-2.38,15.5,2.29,17.86,10.07.3,1,.59,2,.88,3Z" transform="translate(-211.06 -135.72)"/><path class="cls-8" d="M757.76,301.76V284H890.49v17.77Z" transform="translate(-211.06 -135.72)"/><polygon class="cls-17" points="175.27 125.28 40.26 378.19 55.27 376.34 183.8 129.71 175.27 125.28"/><line class="cls-19" x1="282.86" y1="324.88" x2="215.46" y2="315.75"/><line class="cls-19" x1="257.55" y1="341.76" x2="178.65" y2="331.89"/><line class="cls-19" x1="232.67" y1="361.08" x2="141.18" y2="349.13"/><path class="cls-8" d="M652,497.76s-18.59,30.83-23.06,33c0,0-104,16-125.18,14.35,0,0-28.47-11.53-31.05-13.88,0,0,29.88-19.77,38.82-21.18S603.29,494,652,497.76Z" transform="translate(-211.06 -135.72)"/></g></svg>