<svg width="1057" height="521" viewBox="0 0 1057 521" fill="none" xmlns="http://www.w3.org/2000/svg">
<g clip-path="url(#clip0_1_2)">
<path d="M865.1 428.03C865.1 428.03 860.1 498.03 774.1 486.03C719.1 475.03 723.1 424.03 728.1 422.03C733.1 420.03 862.1 423.03 865.1 428.03Z" fill="#1D1D1B"/>
<path d="M559.68 441.37C554.63 459.37 541.68 498.37 520.81 513.63C518.495 515.312 515.882 516.54 513.11 517.25C504.44 519.51 481.7 523.48 445.5 516.37C441.185 515.535 437.188 513.512 433.96 510.53C420.38 497.83 384.65 459.93 386.35 413.7C386.454 411.108 386.995 408.552 387.95 406.14C395.9 385.84 406.33 359 412.87 342.14C414.677 337.483 417.925 333.526 422.14 330.845C426.355 328.165 431.316 326.902 436.3 327.24L495.2 331.24C499.143 331.513 502.953 332.78 506.275 334.922C509.597 337.064 512.323 340.011 514.2 343.49L557.69 424.02C560.567 429.33 561.28 435.547 559.68 441.37Z" fill="#1D1D1B"/>
<path d="M148.1 438.03C148.1 438.03 148.02 438.4 147.85 439.03C146.61 443.93 140.8 464.96 131.1 472.03C131.1 472.03 90.0999 477.03 72.0999 473.03C72.0999 473.03 36.0999 461.03 33.0999 412.03C30.0999 363.03 135.1 382.03 135.1 382.03L148.1 438.03Z" fill="#1D1D1B"/>
<path d="M456.1 515.53C487.028 515.53 512.1 475.348 512.1 425.78C512.1 376.212 487.028 336.03 456.1 336.03C425.172 336.03 400.1 376.212 400.1 425.78C400.1 475.348 425.172 515.53 456.1 515.53Z" fill="#3A3A3A"/>
<path d="M497.6 423.53C497.6 462.74 478.35 494.53 454.6 494.53C430.85 494.53 411.6 462.74 411.6 423.53C411.6 384.32 430.85 352.53 454.6 352.53C461.6 352.53 468.22 355.3 474.06 360.2L474.62 360.67C488.28 372.53 497.6 396.25 497.6 423.53Z" stroke="#B7B7B7" stroke-width="5" stroke-miterlimit="10"/>
<path d="M474.49 361.58L471.63 387.54L457.81 412.71" stroke="#B7B7B7" stroke-width="4" stroke-miterlimit="10"/>
<path d="M495.54 400.8L479.57 401.74L462.49 420.69" stroke="#B7B7B7" stroke-width="4" stroke-miterlimit="10"/>
<path d="M496.63 434.29L480.76 437.41L462.13 422.99" stroke="#B7B7B7" stroke-width="4" stroke-miterlimit="10"/>
<path d="M480.11 479.04L474.88 454.11L458.89 432.72" stroke="#B7B7B7" stroke-width="4" stroke-miterlimit="10"/>
<path d="M460.47 492.28L453.94 468.2L456.72 434.54" stroke="#B7B7B7" stroke-width="4" stroke-miterlimit="10"/>
<path d="M429.68 479.57L442.53 463.9L450.13 432.32" stroke="#B7B7B7" stroke-width="4" stroke-miterlimit="10"/>
<path d="M415.72 449.13L428.4 433.07L448.88 429.75" stroke="#B7B7B7" stroke-width="4" stroke-miterlimit="10"/>
<path d="M416.09 396.72L428.3 413.75L448.66 418.65" stroke="#B7B7B7" stroke-width="4" stroke-miterlimit="10"/>
<path d="M426.93 371.15L440.61 384.81L449.93 415.09" stroke="#B7B7B7" stroke-width="4" stroke-miterlimit="10"/>
<path d="M456.63 352.65L451.47 377.62L456.11 410.72" stroke="#B7B7B7" stroke-width="4" stroke-miterlimit="10"/>
<path d="M455.43 436.32C459.638 436.32 463.05 430.683 463.05 423.73C463.05 416.777 459.638 411.14 455.43 411.14C451.222 411.14 447.81 416.777 447.81 423.73C447.81 430.683 451.222 436.32 455.43 436.32Z" fill="#CCCCCC" stroke="#B7B7B7" stroke-width="4" stroke-miterlimit="10"/>
<path d="M78.6 466.53C106.766 466.53 129.6 426.348 129.6 376.78C129.6 327.212 106.766 287.03 78.6 287.03C50.4335 287.03 27.6 327.212 27.6 376.78C27.6 426.348 50.4335 466.53 78.6 466.53Z" fill="#3A3A3A"/>
<path d="M116.39 374.53C116.39 413.74 98.8599 445.53 77.2299 445.53C55.6 445.53 38.0699 413.74 38.0699 374.53C38.0699 335.32 55.6099 303.53 77.2299 303.53C83.61 303.53 89.6399 306.3 94.9599 311.2L95.4599 311.67C107.91 323.53 116.39 347.25 116.39 374.53Z" stroke="#B7B7B7" stroke-width="5" stroke-miterlimit="10"/>
<path d="M95.35 312.58L92.74 338.54L80.16 363.71" stroke="#B7B7B7" stroke-width="4" stroke-miterlimit="10"/>
<path d="M114.52 351.8L99.97 352.74L84.42 371.69" stroke="#B7B7B7" stroke-width="4" stroke-miterlimit="10"/>
<path d="M115.51 385.29L101.06 388.41L84.09 373.99" stroke="#B7B7B7" stroke-width="4" stroke-miterlimit="10"/>
<path d="M100.46 430.04L95.7 405.11L81.14 383.72" stroke="#B7B7B7" stroke-width="4" stroke-miterlimit="10"/>
<path d="M82.58 443.28L76.63 419.2L79.17 385.54" stroke="#B7B7B7" stroke-width="4" stroke-miterlimit="10"/>
<path d="M54.54 430.57L66.24 414.9L73.16 383.32" stroke="#B7B7B7" stroke-width="4" stroke-miterlimit="10"/>
<path d="M41.83 400.13L53.38 384.07L72.03 380.75" stroke="#B7B7B7" stroke-width="4" stroke-miterlimit="10"/>
<path d="M42.16 347.72L53.28 364.75L71.83 369.65" stroke="#B7B7B7" stroke-width="4" stroke-miterlimit="10"/>
<path d="M52.04 322.15L64.49 335.81L72.98 366.09" stroke="#B7B7B7" stroke-width="4" stroke-miterlimit="10"/>
<path d="M79.08 303.65L74.38 328.62L78.61 361.72" stroke="#B7B7B7" stroke-width="4" stroke-miterlimit="10"/>
<path d="M77.99 387.32C81.8228 387.32 84.93 381.683 84.93 374.73C84.93 367.777 81.8228 362.14 77.99 362.14C74.1571 362.14 71.05 367.777 71.05 374.73C71.05 381.683 74.1571 387.32 77.99 387.32Z" fill="#CCCCCC" stroke="#B7B7B7" stroke-width="4" stroke-miterlimit="10"/>
<path d="M473.1 140.03C473.1 140.03 649.1 142.03 689.1 159.03C729.1 176.03 807.1 205.03 834.1 222.03C834.1 222.03 900.1 226.03 912.1 243.03C924.1 260.03 923.1 320.03 922.1 331.03C922.1 331.03 933.1 344.03 936.1 350.03C939.1 356.03 936.1 384.03 936.1 388.03C936.1 392.03 934.1 406.03 928.1 431.03C928.1 431.03 870.1 433.03 866.1 433.03C862.1 433.03 724.1 447.03 724.1 447.03C724.1 447.03 631.1 454.03 616.1 453.03L537.1 467.03L516.1 436.03C516.1 436.03 521.1 346.03 450.1 329.03C391.1 321.03 393.1 441.03 393.1 445.03C393.1 449.03 404.1 460.03 404.1 460.03L123.1 443.03L114.1 421.03C114.1 421.03 88.1 353.03 92.1 353.03C96.1 353.03 127.1 291.03 127.1 291.03L141.1 269.03C141.1 269.03 164.1 270.03 200.1 233.03C236.1 196.03 289.1 165.03 336.1 156.03C383.1 147.03 462.1 140.03 473.1 140.03Z" fill="url(#paint0_linear_1_2)"/>
<path d="M736.1 268.03C736.1 268.03 698.1 263.03 695.1 263.03C692.1 263.03 622.1 267.03 622.1 268.03C622.1 269.03 586.1 336.03 583.1 336.03C580.1 336.03 681.1 330.03 681.1 330.03L672.1 319.03L651.1 309.03L658.1 284.03L722.1 278.03L736.1 268.03Z" fill="#FF7F40"/>
<path d="M916.95 254.25L849.1 261.03L864.1 272.03L914.1 279.03L918.1 295.03L908.1 309.03L904.1 320.03L922.1 331.03C922.1 331.03 921.8 257.53 916.95 254.25Z" fill="#FF7F40"/>
<path d="M690.6 159.64C690.6 159.64 507.1 150.03 480.1 165.03C480.1 165.03 552.1 198.03 570.1 225.03C570.1 225.03 815.1 217.03 834.1 222.03C853.1 227.03 693.99 160.25 690.6 159.64Z" fill="#9DE4FF"/>
<path d="M356.1 161.03C356.1 161.03 430.1 162.03 442.1 167.03C454.1 172.03 481.1 198.03 480.1 202.03C479.1 206.03 479.1 240.03 410.1 248.03C341.1 256.03 306.1 260.03 306.1 260.03C306.1 260.03 340.1 176.03 356.1 161.03Z" fill="#9DE4FF"/>
<path d="M933.32 407.23C933.32 407.23 911.1 406.03 907.1 407.03V425.03H929.51L933.32 407.23Z" fill="#1D1D1B"/>
<path d="M716.1 425.03C716.1 425.03 698.1 418.03 662.1 425.03C662.1 425.03 648.1 439.03 643.1 446.03C643.1 446.03 692.1 448.03 700.1 446.03C708.1 444.03 715.1 429.03 716.1 425.03Z" fill="#1D1D1B"/>
<path d="M907.1 236.03C907.1 236.03 675.1 220.03 617.1 263.03C617.1 263.03 564.1 348.03 558.1 350.03C558.1 350.03 520.28 371.68 503.19 372.35" stroke="black" stroke-miterlimit="10"/>
<path d="M937.12 350.53C908.6 351.677 880.087 352.917 851.58 354.25C823.073 355.583 794.57 357.047 766.07 358.64C751.82 359.47 737.58 360.34 723.35 361.36C716.23 361.87 709.12 362.42 702.01 363.07C698.46 363.4 694.91 363.74 691.37 364.16C689.6 364.37 687.83 364.59 686.07 364.85C684.307 365.071 682.56 365.405 680.84 365.85C653.61 374.66 624.3 374.22 597.1 382.99C624.28 374.14 653.62 374.49 680.76 365.61C682.492 365.143 684.252 364.789 686.03 364.55C687.79 364.28 689.56 364.06 691.33 363.84C694.88 363.41 698.43 363.06 701.98 362.72C709.09 362.05 716.2 361.48 723.32 360.95C737.55 359.89 751.79 358.95 766.04 358.11C794.527 356.39 823.027 354.84 851.54 353.46C880.053 352.08 908.567 350.747 937.08 349.46L937.12 350.53Z" fill="black"/>
<path d="M937.1 388.03C937.1 388.03 679.1 402.03 669.1 407.03C659.1 412.03 624.86 422.74 599.98 455.89" stroke="black" stroke-miterlimit="10"/>
<path d="M901.45 431.93C901.45 431.93 895.1 416.03 893.1 416.03C891.1 416.03 752.1 422.03 740.1 428.03C740.1 428.03 727.1 444.03 724.1 447.03C721.1 450.03 896.8 426.84 901.45 431.93Z" fill="#1D1D1B"/>
<path d="M904.1 320.03L899.1 338.03C899.1 338.03 699.1 349.03 689.1 348.03C689.1 348.03 681.1 334.03 681.1 330.03" stroke="black" stroke-miterlimit="10"/>
<path d="M849.1 261.03L736.1 268.03" stroke="black" stroke-miterlimit="10"/>
<path d="M639.87 251.63L658.1 284.03" stroke="black" stroke-miterlimit="10"/>
<path d="M617.1 263.03C617.1 263.03 478.39 253.03 443.24 264.53" stroke="#0068B5" stroke-width="2" stroke-miterlimit="10"/>
<path d="M356.1 161.03C356.1 161.03 237.04 182.21 201.1 255.03L307.1 257.5C307.1 257.5 340.1 169.03 356.1 161.03Z" fill="#76DFFF"/>
<path d="M210.6 255.53L306.6 258.53C306.6 258.53 272.6 287.53 282.6 363.53C282.6 363.53 278.83 387.53 273.72 400.03C268.61 412.53 275.6 420.53 275.6 420.53L194.6 415.77L210.6 255.53Z" fill="#7C7C7C"/>
<path d="M280.6 328.53C263.6 327.53 206.6 328.53 206.6 328.53V255.53L306.6 258.53C306.6 258.53 282.6 279.53 280.6 328.53Z" fill="#3F3F3F"/>
<path d="M201.1 255.03C201.1 255.03 180.1 361.03 184.1 414.03C184.1 414.03 199.1 418.03 201.1 414.03C201.1 414.03 205.51 277.69 215.3 255.36L201.1 255.03Z" fill="#727272" stroke="black" stroke-miterlimit="10"/>
<path d="M279.6 335.42L237.15 335.03C237.15 335.03 211.15 383.03 213.15 385.03C213.57 385.45 216.61 385.88 221.15 386.28C238.01 387.77 275.63 388.94 277.15 388.54C279.15 388.03 282.96 366.41 283.04 363.22C283.12 360.03 277.99 336.81 279.6 335.42Z" fill="#545454" stroke="black" stroke-miterlimit="10"/>
<path d="M219.1 417.03L219.97 386.18L277.1 389.03L273.1 402.03L275.6 420.53C275.6 420.53 221.1 417.03 219.1 417.03Z" fill="#444444"/>
<path d="M306.1 258.03C269.51 300.77 283.83 357.47 283.1 364.03C282.55 369.03 274.1 399.03 273.1 402.03C272.1 405.03 278.1 436.03 278.1 436.03C330.1 437.03 378.1 434.03 378.1 434.03C374.1 396.03 407.1 325.03 417.1 310.03C427.1 295.03 460.96 231.96 460.96 231.96" stroke="#0068B5" stroke-width="2" stroke-miterlimit="10"/>
<path d="M277.84 434.66C277.84 434.66 148.1 428.03 141.1 427.03" stroke="black" stroke-miterlimit="10"/>
<path d="M277.1 316.03L280.1 284.03C280.1 284.03 281.1 279.03 277.1 277.03C273.1 275.03 228.1 275.03 228.1 275.03C228.1 275.03 222.1 277.03 222.1 282.03C222.1 287.03 219.42 316.3 219.42 316.3L277.1 316.03Z" stroke="black" stroke-miterlimit="10"/>
<path d="M570.1 225.03C570.1 225.03 638.7 248.44 662.4 245.24" stroke="black" stroke-miterlimit="10"/>
<path d="M192.1 298.03C192.1 298.03 199.1 279.03 164.1 272.03C141.69 267.55 10.3799 253.03 10.0999 253.03C5.04995 253.75 2.09995 266.03 1.09995 282.03C0.0999464 298.03 1.09995 421.03 3.09995 423.03C5.09995 425.03 67.0999 429.03 105.1 423.03C143.1 417.03 156.1 415.03 163.1 414.03C173.1 412.03 180.1 414.03 185.03 367.39C190.1 311.03 192.1 298.03 192.1 298.03Z" fill="#727272" stroke="black" stroke-miterlimit="10"/>
<path d="M40.1 426.03C24.1 422.03 15.1 425.03 14.1 406.03C13.1 387.03 13.1 273.03 13.1 273.03C13.1 273.03 13.31 254.12 24.2 254.57C19.5481 253.685 14.8333 253.17 10.1 253.03C5.09997 253.03 1.09997 273.03 1.09997 285.03C0.0999683 297.03 0.0999682 420.03 3.09997 423.03C6.09997 426.03 40.1 426.03 40.1 426.03Z" fill="#191919" stroke="black" stroke-miterlimit="10"/>
<path d="M137.1 285.03C137.1 285.03 177.1 346.03 177.1 350.03C177.1 354.03 179.1 379.03 177.1 383.03C175.1 387.03 170.1 393.03 160.1 393.03C150.1 393.03 66.1 400.03 66.1 400.03C66.1 400.03 52.1 382.03 51.1 378.03C50.1 374.03 41.1 295.27 41.1 293.03C41.1 290.03 40.1 278.03 55.1 278.03C70.1 278.03 124.1 278.03 137.1 285.03Z" stroke="black" stroke-miterlimit="10"/>
<path d="M148.02 312.96C149.76 316.58 153.25 324.46 153.1 326.03C152.92 328.03 153.1 329.03 148.1 329.03H53.1C51.1 329.03 50.1 326.03 50.1 322.03C50.1 322.03 50.1 321.98 50.1 321.95V312.95C50.1 312.95 50.03 308.95 57.1 308.95C64.17 308.95 139.1 310.95 142.1 310.95C145.1 310.95 147.1 311.03 148.02 312.96Z" stroke="black" stroke-miterlimit="10"/>
<path d="M132.1 296.03L111.1 295.03C111.1 295.03 110.1 304.03 113.1 306.03C116.1 308.03 140.1 307.03 140.1 307.03C140.1 307.03 135.1 297.03 132.1 296.03Z" stroke="black" stroke-miterlimit="10"/>
<path d="M165.24 272.27C165.24 272.27 142.46 210.53 117.1 199.03C84.1 184.03 10.1 162.03 7.09998 162.03C7.09998 162.03 22.77 231.94 16.94 253.49C16.94 253.53 161.37 269.53 165.24 272.27Z" fill="#9DE4FF"/>
<path d="M176.73 302.53L240.4 320.72C240.884 320.868 241.323 321.136 241.675 321.499C242.028 321.862 242.283 322.308 242.416 322.796C242.55 323.284 242.558 323.798 242.44 324.29C242.322 324.782 242.081 325.236 241.74 325.61L228.33 339.73C227.953 340.128 227.473 340.415 226.945 340.559C226.416 340.704 225.857 340.701 225.33 340.55L160.15 322.43C159.653 322.28 159.203 322.004 158.844 321.628C158.486 321.252 158.231 320.789 158.105 320.285C157.979 319.781 157.986 319.253 158.125 318.752C158.265 318.252 158.532 317.796 158.9 317.43L173.9 303.21C174.275 302.866 174.732 302.623 175.227 302.504C175.722 302.385 176.239 302.394 176.73 302.53Z" fill="#1D1D1B"/>
<path d="M177.1 327.03L199.1 333.03C199.1 333.03 192.1 339.03 181.1 336.03C170.31 333.09 177.1 327.03 177.1 327.03Z" fill="#1D1D1B"/>
<path d="M67.54 350.61L173.34 332.26C174.503 332.06 175.697 332.16 176.81 332.55L182.75 334.65C183.115 334.778 183.429 335.023 183.641 335.346C183.853 335.67 183.953 336.055 183.924 336.441C183.896 336.827 183.741 337.193 183.483 337.482C183.226 337.771 182.88 337.967 182.5 338.04L72.5 359.53C71.803 359.667 71.0806 359.58 70.4359 359.282C69.7912 358.984 69.2571 358.49 68.91 357.87L66.3 353.17C66.1718 352.925 66.1028 352.653 66.0985 352.377C66.0942 352.1 66.1547 351.827 66.2753 351.578C66.3959 351.329 66.5731 351.112 66.7927 350.944C67.0123 350.776 67.2683 350.661 67.54 350.61Z" fill="#1D1D1B"/>
<path d="M69.1 358.03C69.1 358.03 -8.39999 393.53 41.6 444.53C41.6 444.53 52.6 453.53 51.6 458.53C15.6 449.53 9.10001 410.03 21.1 386.03C33.63 360.97 69.1 352.03 69.1 352.03C69.1 352.03 75.1 356.03 69.1 358.03Z" fill="#1D1D1B"/>
</g>
<defs>
<linearGradient id="paint0_linear_1_2" x1="91.68" y1="303.53" x2="937.43" y2="303.53" gradientUnits="userSpaceOnUse">
<stop stop-color="#36C9FF"/>
<stop offset="0.34" stop-color="#36BEFF"/>
<stop offset="0.93" stop-color="#36A2FF"/>
<stop offset="0.99" stop-color="#369EFF"/>
</linearGradient>
<clipPath id="clip0_1_2">
<rect width="1056.42" height="520.42" fill="white"/>
</clipPath>
</defs>
</svg>
