<svg width="30" height="30" viewBox="0 0 30 30" fill="none" xmlns="http://www.w3.org/2000/svg">
<path d="M15 0C11.0231 0.00431531 7.21026 1.59118 4.39815 4.41242C1.58604 7.23366 0.00430135 11.0588 0 15.0487C0.75 34.9882 29.25 34.9794 30 15.0487C29.9957 11.0588 28.414 7.23366 25.6019 4.41242C22.7897 1.59118 18.9769 0.00431531 15 0ZM15 27.5892C11.6859 27.5856 8.5086 26.2632 6.16518 23.9122C3.82177 21.5611 2.50364 18.3735 2.5 15.0487C3.125 -1.56506 26.875 -1.5613 27.5 15.0487C27.4964 18.3735 26.1782 21.5611 23.8348 23.9122C21.4914 26.2632 18.3141 27.5856 15 27.5892ZM15 5.01622C12.3487 5.01921 9.80694 6.07716 7.93222 7.95796C6.0575 9.83876 5.00298 12.3888 5 15.0487C5.47 28.3266 24.5325 28.3229 25 15.0487C24.997 12.3888 23.9425 9.83876 22.0678 7.95796C20.1931 6.07716 17.6513 5.01921 15 5.01622ZM13.9575 16.4106C13.9311 16.0656 13.8708 15.7241 13.7775 15.391C13.6836 15.0603 13.558 14.7394 13.4025 14.4329C14.006 14.195 14.551 13.8288 15 13.3595C15.448 13.8283 15.9916 14.1945 16.5938 14.4329C16.4382 14.7394 16.3126 15.0603 16.2188 15.391C16.1255 15.7241 16.0652 16.0656 16.0387 16.4106C15.3523 16.2681 14.644 16.2681 13.9575 16.4106ZM21.4 11.1285L18.9875 12.0966C18.6846 12.2172 18.3568 12.2617 18.0329 12.2262C17.7089 12.1907 17.3984 12.0763 17.1286 11.8929C16.8587 11.7096 16.6376 11.4629 16.4845 11.1743C16.3314 10.8856 16.2509 10.5638 16.25 10.2369V7.62968C17.3075 7.8106 18.3142 8.21642 19.2025 8.81989C20.0907 9.42336 20.84 10.2105 21.4 11.1285ZM13.75 7.62968V10.2369C13.7491 10.5638 13.6686 10.8856 13.5155 11.1743C13.3624 11.4629 13.1413 11.7096 12.8714 11.8929C12.6016 12.0763 12.2911 12.1907 11.9671 12.2262C11.6432 12.2617 11.3154 12.2172 11.0125 12.0966L8.6 11.1285C9.15999 10.2105 9.90928 9.42336 10.7975 8.81989C11.6858 8.21642 12.6925 7.8106 13.75 7.62968ZM7.5 15.0487C7.49999 14.5137 7.55656 13.9803 7.66875 13.4573L9.79375 14.3113C10.1731 14.4631 10.5125 14.7006 10.7857 15.0052C11.0588 15.3099 11.2583 15.6736 11.3688 16.068C11.4793 16.4625 11.4978 16.8772 11.4227 17.28C11.3477 17.6828 11.1813 18.0629 10.9362 18.3907L9.56125 20.2254C8.237 18.8294 7.49892 16.9758 7.5 15.0487ZM11.5588 21.7328L13 19.8141C13.241 19.5148 13.5457 19.2734 13.8918 19.1076C14.2378 18.9418 14.6165 18.8557 15 18.8557C15.3835 18.8557 15.7622 18.9418 16.1082 19.1076C16.4543 19.2734 16.759 19.5148 17 19.8141L18.4362 21.734C17.3716 22.28 16.193 22.5646 14.9973 22.5644C13.8017 22.5642 12.6232 22.2791 11.5588 21.7328ZM20.4338 20.2279L19.6138 19.1331L19.0612 18.3932C18.8157 18.0653 18.6489 17.6851 18.5736 17.282C18.4983 16.8789 18.5166 16.4639 18.6271 16.069C18.7376 15.6742 18.9373 15.3102 19.2108 15.0054C19.4842 14.7006 19.824 14.463 20.2038 14.3113L22.3288 13.4573C22.5837 14.6553 22.5446 15.8976 22.2147 17.0771C21.8848 18.2565 21.2728 19.3379 20.4338 20.2279Z" fill="#057AFF"/>
</svg>
