<svg width="668" height="568" viewBox="0 0 668 568" fill="none" xmlns="http://www.w3.org/2000/svg">
<path d="M34 150.667L124.729 226.273C130.719 231.267 138.27 234 146.068 234H521.93C529.73 234 537.28 231.267 543.27 226.273L634 150.667M150.667 350.667H151M517.333 350.667H517.667M206.022 34H461.98C485.903 34 507.993 46.819 519.86 67.5907L616.433 236.59C627.943 256.737 634 279.537 634 302.743V500.667C634 519.077 619.077 534 600.667 534H567.333C548.923 534 534 519.077 534 500.667V467.333H134V500.667C134 519.077 119.076 534 100.667 534H67.3333C48.924 534 34 519.077 34 500.667V302.743C34 279.537 40.0553 256.737 51.5677 236.59L148.139 67.5907C160.008 46.819 182.098 34 206.022 34ZM167.333 350.667C167.333 359.87 159.871 367.333 150.667 367.333C141.462 367.333 134 359.87 134 350.667C134 341.463 141.462 334 150.667 334C159.871 334 167.333 341.463 167.333 350.667ZM534 350.667C534 359.87 526.537 367.333 517.333 367.333C508.13 367.333 500.667 359.87 500.667 350.667C500.667 341.463 508.13 334 517.333 334C526.537 334 534 341.463 534 350.667Z" stroke="#057AFF" stroke-width="66.6667" stroke-linecap="round" stroke-linejoin="round"/>
</svg>
