<svg width="30" height="30" viewBox="0 0 30 30" fill="none" xmlns="http://www.w3.org/2000/svg">
<g clip-path="url(#clip0_4_70)">
<path d="M30 13.75C30 10.3038 27.1963 7.5 23.75 7.5H18.75V15H16.855L4.98 0H2.5V8.125C2.5 8.47 2.22 8.75 1.875 8.75H0V11.25H1.875C3.5975 11.25 5 9.8475 5 8.125V4.05375L13.6662 15H3.75C1.6825 15 0 16.6825 0 18.75V25H2.54625C2.51625 25.2062 2.5 25.4137 2.5 25.625C2.5 28.0375 4.4625 30 6.875 30C9.2875 30 11.25 28.0375 11.25 25.625C11.25 25.4137 11.2338 25.2062 11.2038 25H18.7962C18.7662 25.2062 18.75 25.4137 18.75 25.625C18.75 28.0375 20.7125 30 23.125 30C25.5375 30 27.5 28.0375 27.5 25.625C27.5 25.4137 27.4837 25.2062 27.4537 25H30V13.75ZM8.75 25.625C8.75 26.6588 7.90875 27.5 6.875 27.5C5.84125 27.5 5 26.6588 5 25.625C5 25.3888 5.04625 25.18 5.11375 25H8.6375C8.705 25.18 8.75 25.3888 8.75 25.625ZM18.75 22.5H2.5V18.75C2.5 18.0613 3.06125 17.5 3.75 17.5H18.75V22.5ZM23.75 10C25.8175 10 27.5 11.6825 27.5 13.75V15H21.25V10H23.75ZM25 25.625C25 26.6588 24.1588 27.5 23.125 27.5C22.0912 27.5 21.25 26.6588 21.25 25.625C21.25 25.3888 21.2962 25.18 21.3638 25H24.8875C24.955 25.18 25 25.3888 25 25.625ZM21.25 22.5V17.5H27.5V22.5H21.25Z" fill="#057AFF"/>
</g>
<defs>
<clipPath id="clip0_4_70">
<rect width="30" height="30" fill="white"/>
</clipPath>
</defs>
</svg>
